<svg xmlns="http://www.w3.org/2000/svg" xmlns:xlink="http://www.w3.org/1999/xlink" viewBox="0 0 754.55 702.44"><defs><style>.cls-1{fill:none;}.cls-2{isolation:isolate;}.cls-3{clip-path:url(#clip-path);}.cls-4{mix-blend-mode:multiply;}.cls-5{clip-path:url(#clip-path-3);}.cls-6{clip-path:url(#clip-path-4);}.cls-7{fill:url(#Безымянный_градиент_49);}.cls-8{fill:#333;}.cls-9{fill:#f3b378;}.cls-10{fill:#f7c479;}.cls-11{fill:#4c4c4c;}.cls-12{fill:#ed995a;}.cls-13{clip-path:url(#clip-path-6);}.cls-14{clip-path:url(#clip-path-7);}.cls-15{fill:url(#Безымянный_градиент_49-2);}.cls-16{fill:#f4f4f4;}.cls-17{fill:#d67747;}.cls-18{fill:#c4c4c4;}.cls-19{clip-path:url(#clip-path-9);}.cls-20{clip-path:url(#clip-path-10);}.cls-21{fill:url(#Безымянный_градиент_3);}.cls-22{clip-path:url(#clip-path-11);}.cls-23{fill:url(#Безымянный_градиент_4);}.cls-24{clip-path:url(#clip-path-13);}.cls-25{fill:url(#Безымянный_градиент_5);}.cls-26{clip-path:url(#clip-path-14);}.cls-27{fill:url(#Безымянный_градиент_6);}.cls-28{clip-path:url(#clip-path-15);}.cls-29{fill:url(#Безымянный_градиент_7);}.cls-30{clip-path:url(#clip-path-17);}.cls-31{clip-path:url(#clip-path-18);}.cls-32{fill:url(#Безымянный_градиент_8);}.cls-33{clip-path:url(#clip-path-19);}.cls-34{clip-path:url(#clip-path-20);}.cls-35{fill:url(#Безымянный_градиент_9);}.cls-36{fill:#4141aa;}.cls-37{clip-path:url(#clip-path-21);}.cls-38{fill:url(#Безымянный_градиент_10);}.cls-39{fill:#fff;}.cls-40{clip-path:url(#clip-path-23);}.cls-41{clip-path:url(#clip-path-24);}.cls-42{fill:url(#Безымянный_градиент_49-3);}.cls-43{clip-path:url(#clip-path-25);}.cls-44{fill:url(#Безымянный_градиент_12);}.cls-45{clip-path:url(#clip-path-27);}.cls-46{fill:url(#Безымянный_градиент_13);}.cls-47{clip-path:url(#clip-path-29);}.cls-48{clip-path:url(#clip-path-30);}.cls-49{fill:url(#Безымянный_градиент_49-4);}.cls-50{clip-path:url(#clip-path-31);}.cls-51{clip-path:url(#clip-path-32);}.cls-52{fill:url(#Безымянный_градиент_15);}.cls-53{clip-path:url(#clip-path-33);}.cls-54{fill:#d3d8f2;}.cls-55{fill:#282a44;}.cls-56{fill:#d8d8d8;}.cls-57{clip-path:url(#clip-path-34);}.cls-58{clip-path:url(#clip-path-35);}.cls-59{fill:url(#Безымянный_градиент_16);}.cls-60{fill:#bfc4e1;}.cls-61{mix-blend-mode:screen;}.cls-62{clip-path:url(#clip-path-36);}.cls-63{clip-path:url(#clip-path-37);}.cls-64{fill:url(#Безымянный_градиент_18);}.cls-65{clip-path:url(#clip-path-38);}.cls-66{clip-path:url(#clip-path-39);}.cls-67{fill:url(#Безымянный_градиент_18-2);}.cls-68{clip-path:url(#clip-path-40);}.cls-69{clip-path:url(#clip-path-41);}.cls-70{fill:url(#Безымянный_градиент_49-5);}.cls-71{clip-path:url(#clip-path-42);}.cls-72{clip-path:url(#clip-path-43);}.cls-73{fill:url(#Безымянный_градиент_23);}.cls-74{clip-path:url(#clip-path-44);}.cls-75{fill:url(#Безымянный_градиент_27);}.cls-76{clip-path:url(#clip-path-46);}.cls-77{fill:url(#Безымянный_градиент_27-2);}.cls-78{clip-path:url(#clip-path-48);}.cls-79{clip-path:url(#clip-path-49);}.cls-80{fill:url(#Безымянный_градиент_23-2);}.cls-81{clip-path:url(#clip-path-50);}.cls-82{fill:url(#Безымянный_градиент_27-3);}.cls-83{clip-path:url(#clip-path-52);}.cls-84{fill:url(#Безымянный_градиент_27-4);}.cls-85{clip-path:url(#clip-path-54);}.cls-86{fill:url(#Безымянный_градиент_27-5);}.cls-87{clip-path:url(#clip-path-56);}.cls-88{fill:url(#Безымянный_градиент_27-6);}.cls-89{clip-path:url(#clip-path-58);}.cls-90{fill:url(#Безымянный_градиент_28);}.cls-91{clip-path:url(#clip-path-60);}.cls-92{fill:url(#Безымянный_градиент_29);}.cls-93{clip-path:url(#clip-path-61);}.cls-94{fill:url(#Безымянный_градиент_30);}.cls-95{clip-path:url(#clip-path-63);}.cls-96{fill:url(#Безымянный_градиент_31);}.cls-97{clip-path:url(#clip-path-65);}.cls-98{clip-path:url(#clip-path-66);}.cls-99{fill:url(#Безымянный_градиент_49-6);}.cls-100{clip-path:url(#clip-path-67);}.cls-101{clip-path:url(#clip-path-68);}.cls-102{fill:url(#Безымянный_градиент_49-7);}.cls-103{clip-path:url(#clip-path-69);}.cls-104{fill:url(#Безымянный_градиент_39);}.cls-105{fill:#bdc1e4;}.cls-106{clip-path:url(#clip-path-71);}.cls-107{clip-path:url(#clip-path-72);}.cls-108{fill:url(#Безымянный_градиент_35);}.cls-109{clip-path:url(#clip-path-73);}.cls-110{clip-path:url(#clip-path-74);}.cls-111{fill:url(#Безымянный_градиент_36);}.cls-112{clip-path:url(#clip-path-75);}.cls-113{clip-path:url(#clip-path-76);}.cls-114{fill:url(#Безымянный_градиент_37);}.cls-115{clip-path:url(#clip-path-77);}.cls-116{clip-path:url(#clip-path-78);}.cls-117{fill:url(#Безымянный_градиент_49-8);}.cls-118{fill:#e3e6f1;}.cls-119{clip-path:url(#clip-path-79);}.cls-120{fill:url(#Безымянный_градиент_39-2);}.cls-121{fill:#f7f7fc;}.cls-122{clip-path:url(#clip-path-81);}.cls-123{clip-path:url(#clip-path-82);}.cls-124{fill:url(#Безымянный_градиент_40);}.cls-125{clip-path:url(#clip-path-83);}.cls-126{clip-path:url(#clip-path-84);}.cls-127{fill:url(#Безымянный_градиент_49-9);}.cls-128{clip-path:url(#clip-path-85);}.cls-129{clip-path:url(#clip-path-86);}.cls-130{fill:url(#Безымянный_градиент_49-10);}.cls-131{fill:#ba6038;}.cls-132{fill:#f6d3af;}.cls-133{clip-path:url(#clip-path-87);}.cls-134{fill:url(#Безымянный_градиент_45);}.cls-135{clip-path:url(#clip-path-89);}.cls-136{fill:url(#Безымянный_градиент_44);}.cls-137{clip-path:url(#clip-path-91);}.cls-138{fill:url(#Безымянный_градиент_45-2);}.cls-139{clip-path:url(#clip-path-93);}.cls-140{fill:url(#Безымянный_градиент_46);}.cls-141{clip-path:url(#clip-path-94);}.cls-142{fill:url(#Безымянный_градиент_47);}.cls-143{fill:#ebc5a3;}.cls-144{clip-path:url(#clip-path-96);}.cls-145{clip-path:url(#clip-path-97);}.cls-146{fill:url(#Безымянный_градиент_49-11);}.cls-147{clip-path:url(#clip-path-98);}.cls-148{fill:url(#Безымянный_градиент_49-12);}.cls-149{clip-path:url(#clip-path-100);}.cls-150{fill:url(#Безымянный_градиент_51);}.cls-151{clip-path:url(#clip-path-102);}.cls-152{fill:url(#Безымянный_градиент_51-2);}.cls-153{clip-path:url(#clip-path-104);}.cls-154{fill:url(#Безымянный_градиент_52);}.cls-155{clip-path:url(#clip-path-105);}.cls-156{fill:url(#Безымянный_градиент_54);}.cls-157{clip-path:url(#clip-path-106);}.cls-158{fill:url(#Безымянный_градиент_54-2);}.cls-159{clip-path:url(#clip-path-108);}.cls-160{fill:url(#Безымянный_градиент_55);}</style><clipPath id="clip-path"><rect class="cls-1" y="112.5" width="704.06" height="589.94"/></clipPath><clipPath id="clip-path-3"><rect class="cls-1" x="58.45" y="324.44" width="107.02" height="70.37"/></clipPath><clipPath id="clip-path-4"><polygon class="cls-1" points="120.59 324.44 90.59 324.44 135.46 350.35 135.46 350.35 58.45 394.81 88.46 394.81 165.47 350.35 120.59 324.44"/></clipPath><linearGradient id="Безымянный_градиент_49" y1="702.44" x2="1" y2="702.44" gradientTransform="matrix(107.02, 0, 0, -107.02, 58.39, 75534.81)" gradientUnits="userSpaceOnUse"><stop offset="0" stop-color="#e2e2e2"/><stop offset="1" stop-color="#fff"/></linearGradient><clipPath id="clip-path-6"><rect class="cls-1" x="160.65" y="335.8" width="165.54" height="71.33"/></clipPath><clipPath id="clip-path-7"><polygon class="cls-1" points="264.41 335.8 160.65 335.8 222.43 371.46 160.65 407.13 264.41 407.13 326.19 371.46 264.41 335.8"/></clipPath><linearGradient id="Безымянный_градиент_49-2" x1="0" y1="702.44" x2="1" y2="702.44" gradientTransform="matrix(165.54, 0, 0, -165.54, 160.57, 116651.55)" xlink:href="#Безымянный_градиент_49"/><clipPath id="clip-path-9"><rect class="cls-1" x="173.38" y="279.37" width="27.2" height="18.79"/></clipPath><clipPath id="clip-path-10"><path class="cls-1" d="M198.3,282.22l-.1-.12h0c-1.36-1.69-3-2.73-4.17-2.71-8.62.14-14.71.36-16,.41h0l-4.61,18.36H187.5l0,0,2.35-1.36,3.24-1.86,6-3.44h0c.91-.52,1.56-1.62,1.56-3.51a10,10,0,0,0-2.28-5.76"/></clipPath><linearGradient id="Безымянный_градиент_3" y1="702.44" x2="1" y2="702.44" gradientTransform="matrix(27.2, 0, 0, -27.2, 173.36, 19395.53)" gradientUnits="userSpaceOnUse"><stop offset="0" stop-color="#c6cae3"/><stop offset="0.18" stop-color="#d7daeb"/><stop offset="0.47" stop-color="#edeef6"/><stop offset="0.75" stop-color="#fafbfd"/><stop offset="1" stop-color="#fff"/></linearGradient><clipPath id="clip-path-11"><path class="cls-1" d="M181.75,278.91c-8.61.13-14.71.36-16,.41h0L154,286.08c1.29-.05,7.39-.28,16-.41,1.26,0,2.9,1.07,4.29,2.85a10,10,0,0,1,2.28,5.75c0,1.78-.57,2.87-1.39,3.42L186.76,291v0c.9-.52,1.55-1.62,1.55-3.51a10,10,0,0,0-2.28-5.75l-.1-.12v0h0c-1.35-1.68-2.92-2.72-4.14-2.72h0"/></clipPath><linearGradient id="Безымянный_градиент_4" y1="702.38" x2="1" y2="702.38" gradientTransform="matrix(0, 20.66, 20.66, 0, -14342.32, 277.79)" gradientUnits="userSpaceOnUse"><stop offset="0" stop-color="#fff"/><stop offset="0.3" stop-color="#eff1f8"/><stop offset="0.89" stop-color="#c7cbe5"/><stop offset="1" stop-color="#bfc4e1"/></linearGradient><clipPath id="clip-path-13"><path class="cls-1" d="M134.31,266.53a2.07,2.07,0,0,0-1.74,2.32,9.34,9.34,0,0,0,4,7.24l15.17,8.76c-2.64-3.14-7.72-9.16-14.25-16.81a4,4,0,0,0-2.88-1.53l-.31,0"/></clipPath><linearGradient id="Безымянный_градиент_5" y1="702.49" x2="1" y2="702.49" gradientTransform="matrix(0, 24.75, 24.75, 0, -17241.85, 263.66)" gradientUnits="userSpaceOnUse"><stop offset="0" stop-color="#a7acca"/><stop offset="0.39" stop-color="#afb4d1"/><stop offset="1" stop-color="#c6cae3"/></linearGradient><clipPath id="clip-path-14"><path class="cls-1" d="M170.56,287.13c-6.54.1-11.62.26-14.26.35l15.17,8.76c1.4.8,4,.86,4-2.62a7.56,7.56,0,0,0-1.74-4.33c-1-1.33-2.25-2.16-3.16-2.16h0"/></clipPath><linearGradient id="Безымянный_градиент_6" y1="702.37" x2="1" y2="702.37" gradientTransform="matrix(0, 16.72, 16.72, 0, -11578.19, 283.31)" gradientUnits="userSpaceOnUse"><stop offset="0" stop-color="#a7acca"/><stop offset="0.56" stop-color="#b7bbda"/><stop offset="1" stop-color="#bdc0e0"/></linearGradient><clipPath id="clip-path-15"><path class="cls-1" d="M145.43,258.31a2.44,2.44,0,0,0-1.18.48h0l-11.47,6.6a2.67,2.67,0,0,1,.95-.32,5.22,5.22,0,0,1,4.3,2.11c8.61,10.08,14.71,17.35,16,18.9l10.5-6.07,1.21-.69h0c-1.3-1.55-7.4-8.82-16-18.9a5.45,5.45,0,0,0-3.9-2.13l-.39,0"/></clipPath><linearGradient id="Безымянный_градиент_7" y1="702.44" x2="1" y2="702.44" gradientTransform="matrix(0, 28.55, 28.55, 0, -19904.22, 258.04)" gradientUnits="userSpaceOnUse"><stop offset="0" stop-color="#fff"/><stop offset="0.36" stop-color="#fff"/><stop offset="0.56" stop-color="#f9fafc"/><stop offset="0.83" stop-color="#e8ebf5"/><stop offset="1" stop-color="#dadfef"/></linearGradient><clipPath id="clip-path-17"><rect class="cls-1" x="98.87" y="354.14" width="15.01" height="25.99"/></clipPath><clipPath id="clip-path-18"><polygon class="cls-1" points="98.87 354.14 113.88 380.13 98.87 371.46 98.87 354.14"/></clipPath><linearGradient id="Безымянный_градиент_8" y1="702.44" x2="1" y2="702.44" gradientTransform="matrix(15.01, 0, 0, -15.01, 98.87, 10908.32)" gradientUnits="userSpaceOnUse"><stop offset="0" stop-color="#c6cae3"/><stop offset="0.19" stop-color="#d6d9eb"/><stop offset="0.58" stop-color="#f4f5fa"/><stop offset="0.8" stop-color="#fff"/><stop offset="1" stop-color="#fff"/></linearGradient><clipPath id="clip-path-19"><rect class="cls-1" x="4.38" y="385.86" width="143.81" height="83.03"/></clipPath><clipPath id="clip-path-20"><path class="cls-1" d="M142,413.28h0c-11.28,1.82-23.87.17-32.74-4.95s-11.72-12.39-8.58-18.9l-6.18-3.57-90.13,52,1.81,3.57s15.14-8.07,37.12,5c8.81,5.22,11.72,12.39,8.58,18.9l1.8,3.58h4.38l90.13-52Z"/></clipPath><linearGradient id="Безымянный_градиент_9" y1="702.44" x2="1" y2="702.44" gradientTransform="matrix(143.81, 0, 0, -143.81, 4.31, 101447.28)" gradientUnits="userSpaceOnUse"><stop offset="0" stop-color="#c6cae3"/><stop offset="0.47" stop-color="#dfe1ef"/><stop offset="1" stop-color="#fff"/></linearGradient><clipPath id="clip-path-21"><path class="cls-1" d="M6.19,438.93h0v2.53c11.27-1.82,23.87-.17,32.73,5,6,3.46,9.23,7.9,9.74,12.43.61-5.37-2.63-10.86-9.74-15-6.54-3.78-15.12-5.66-23.69-5.66a55.31,55.31,0,0,0-9,.71"/></clipPath><linearGradient id="Безымянный_градиент_10" y1="702.44" x2="1" y2="702.44" gradientTransform="matrix(42.54, 0, 0, -42.54, 6.16, 30332.28)" gradientUnits="userSpaceOnUse"><stop offset="0" stop-color="#3d3e5b"/><stop offset="1" stop-color="#4f4e6c"/></linearGradient><clipPath id="clip-path-23"><rect class="cls-1" x="118.13" y="345.97" width="585.93" height="281.46"/></clipPath><clipPath id="clip-path-24"><path class="cls-1" d="M704.06,359.1l-14.75-8.52c-4.4-2.53-15.19-4.61-24-4.61H314.44c-8.79,0-193,115.25-193,115.25-4.4,2.54-4.4,6.7,0,9.24L390,625.52a16.43,16.43,0,0,0,8.05,1.91h7L594.13,518.26l7.8-4.51H704.06Z"/></clipPath><linearGradient id="Безымянный_градиент_49-3" x1="0" y1="702.44" x2="1" y2="702.44" gradientTransform="matrix(585.93, 0, 0, -585.93, 117.83, 412070.86)" xlink:href="#Безымянный_градиент_49"/><clipPath id="clip-path-25"><path class="cls-1" d="M307.2,125.29h0l-5.75,3.33h0c1.42-.69,3.31-.53,5.39.67L575.45,284.35c4.4,2.54,8,8.77,8,13.85V500.79c0,2.52-.88,4.3-2.31,5.14h0l5.74-3.33h0c1.61-.76,2.63-2.6,2.63-5.3V294.72c0-5.08-3.6-11.31-8-13.85L312.9,125.8a7.27,7.27,0,0,0-3.55-1.08,4.16,4.16,0,0,0-2.15.57"/></clipPath><linearGradient id="Безымянный_градиент_12" y1="702.33" x2="1" y2="702.33" gradientTransform="matrix(0, 466.61, 466.61, 0, -327270.87, 81.36)" gradientUnits="userSpaceOnUse"><stop offset="0" stop-color="#c4c4c4"/><stop offset="0.58" stop-color="#c4c4c4"/><stop offset="0.61" stop-color="#8c8c8c"/><stop offset="1" stop-color="#8c8c8c"/></linearGradient><clipPath id="clip-path-27"><path class="cls-1" d="M105.44,454.54v3.87h0c0,1.69,1,3.38,3.27,4.66L377.33,618.14c6.41,3.18,15.56,2.56,18.29,2s5.17-1.28,8-1.9l172.74-99.73c2.22-1.28,3.32-3,3.29-4.67v-10c0,1.66-1.11,3.31-3.29,4.57L393.32,614.06c-3.5,2-8.75,2.43-13,1.24,0,0-2.62-1-3-1.24L108.74,459a9.63,9.63,0,0,1-.85-.56l0,0-.2-.16c-.15-.12-.3-.24-.44-.37l-.21-.2c-.16-.16-.32-.33-.46-.5l-.05-.06,0,0a5.65,5.65,0,0,1-.42-.62,4.07,4.07,0,0,1-.58-1.92Z"/></clipPath><linearGradient id="Безымянный_градиент_13" y1="702.44" x2="1" y2="702.44" gradientTransform="matrix(474.24, 0, 0, -474.24, 105.2, 333663.65)" gradientUnits="userSpaceOnUse"><stop offset="0" stop-color="#61607d"/><stop offset="0.56" stop-color="#61607d"/><stop offset="0.61" stop-color="#3d3e5b"/><stop offset="1" stop-color="#3d3e5b"/></linearGradient><clipPath id="clip-path-29"><rect class="cls-1" x="200.08" y="342.98" width="126.11" height="54.05"/></clipPath><clipPath id="clip-path-30"><path class="cls-1" d="M291.81,344.07l-91.73,53h64.33l61.78-35.67L294.34,343a12,12,0,0,0-2.53,1.09"/></clipPath><linearGradient id="Безымянный_градиент_49-4" x1="0" y1="702.44" x2="1" y2="702.44" gradientTransform="matrix(126.11, 0, 0, -126.11, 200.01, 88954.87)" xlink:href="#Безымянный_градиент_49"/><clipPath id="clip-path-31"><rect class="cls-1" x="404.13" y="267.04" width="151.6" height="202.44"/></clipPath><clipPath id="clip-path-32"><polygon class="cls-1" points="553.62 351.27 553.62 353.35 404.13 267.04 404.13 381.95 555.72 469.48 555.72 354.56 553.62 351.27"/></clipPath><linearGradient id="Безымянный_градиент_15" y1="702.44" x2="1" y2="702.44" gradientTransform="matrix(0, -202.44, -202.44, 0, 142682.42, 469.58)" gradientUnits="userSpaceOnUse"><stop offset="0" stop-color="#c6cae3"/><stop offset="0.28" stop-color="#e8eaf4"/><stop offset="0.5" stop-color="#fff"/><stop offset="1" stop-color="#fff"/></linearGradient><clipPath id="clip-path-33"><rect class="cls-1" x="443.81" y="335.09" width="69.51" height="77.37"/></clipPath><clipPath id="clip-path-34"><rect class="cls-1" x="337.17" y="314.7" width="48.6" height="44.52"/></clipPath><clipPath id="clip-path-35"><polygon class="cls-1" points="337.17 331.17 365.69 314.7 385.77 326.3 385.77 359.23 337.17 331.17"/></clipPath><linearGradient id="Безымянный_градиент_16" y1="702.59" x2="1" y2="702.59" gradientTransform="matrix(28.52, 0, 0, -28.52, 354.33, 20372.59)" gradientUnits="userSpaceOnUse"><stop offset="0" stop-color="#d3d8f2"/><stop offset="0.64" stop-color="#f2f4fb"/><stop offset="1" stop-color="#fff"/></linearGradient><clipPath id="clip-path-36"><rect class="cls-1" x="337.17" y="230.33" width="48.6" height="96.81"/></clipPath><clipPath id="clip-path-37"><polygon class="cls-1" points="337.17 327.13 385.77 271.17 385.77 258.39 337.17 230.33 337.17 327.13"/></clipPath><linearGradient id="Безымянный_градиент_18" y1="702.44" x2="1" y2="702.44" gradientTransform="matrix(48.6, 0, 0, -48.6, 337.14, 34417.66)" gradientUnits="userSpaceOnUse"><stop offset="0" stop-color="#4f4f4f"/><stop offset="0.36" stop-color="#2d2d2d"/><stop offset="0.77" stop-color="#0c0c0c"/><stop offset="1"/></linearGradient><clipPath id="clip-path-38"><rect class="cls-1" x="352.84" y="326.3" width="32.93" height="32.93"/></clipPath><clipPath id="clip-path-39"><polygon class="cls-1" points="352.84 340.21 385.77 326.3 385.77 359.23 352.84 340.21"/></clipPath><linearGradient id="Безымянный_градиент_18-2" x1="0" y1="702.44" x2="1" y2="702.44" gradientTransform="matrix(32.93, 0, 0, -32.93, 352.83, 23471.55)" xlink:href="#Безымянный_градиент_18"/><clipPath id="clip-path-40"><rect class="cls-1" x="538.24" y="329.47" width="35.57" height="51.28"/></clipPath><clipPath id="clip-path-41"><path class="cls-1" d="M573.81,367.41l-13.57-37.94v20.31l-8.48,4.89-13.51,7.8h0s0,.06,0,.09a10.83,10.83,0,0,0,2.5,2c3.65,2.12,6.61.4,6.61-3.81A14.61,14.61,0,0,0,554,372.2c3.65,2.11,6.62.4,6.62-3.81a14.6,14.6,0,0,0,6.61,11.45c3.65,2.11,6.61.4,6.62-3.82Z"/></clipPath><linearGradient id="Безымянный_градиент_49-5" x1="0" y1="702.44" x2="1" y2="702.44" gradientTransform="matrix(0, -51.28, -51.28, 0, 36578.57, 380.77)" xlink:href="#Безымянный_градиент_49"/><clipPath id="clip-path-42"><rect class="cls-1" x="68.44" y="514.64" width="46.33" height="28.58"/></clipPath><clipPath id="clip-path-43"><path class="cls-1" d="M107.48,518.81c-5.16-3-12-4.35-18.76-4.15H81.2v1.73a27.91,27.91,0,0,0-5.59,2.42c-9.61,5.59-9.55,14.64.12,20.22a27.56,27.56,0,0,0,5.47,2.38v1.8h9.63A35.26,35.26,0,0,0,107.6,539c9.61-5.59,9.56-14.64-.12-20.23"/></clipPath><linearGradient id="Безымянный_градиент_23" y1="702.44" x2="1" y2="702.44" gradientTransform="matrix(46.33, 0, 0, -46.33, 68.42, 33073.53)" gradientUnits="userSpaceOnUse"><stop offset="0" stop-color="#c6cbe7"/><stop offset="0.43" stop-color="#c6cbe7"/><stop offset="0.55" stop-color="#d5d9ed"/><stop offset="0.84" stop-color="#f4f5fa"/><stop offset="1" stop-color="#fff"/></linearGradient><clipPath id="clip-path-44"><path class="cls-1" d="M57.56,528.85c0,3.69,2.42,7.37,7.29,10.18,9.67,5.59,25.3,5.59,34.91,0,4.77-2.78,7.16-6.41,7.17-10l0-5.17c0,3.63-2.4,7.26-7.17,10-9.61,5.58-25.24,5.58-34.91,0-4.87-2.82-7.3-6.5-7.29-10.19Z"/></clipPath><linearGradient id="Безымянный_градиент_27" y1="702.43" x2="1" y2="702.43" gradientTransform="matrix(49.4, 0, 0, -49.4, 57.53, 35230.55)" gradientUnits="userSpaceOnUse"><stop offset="0" stop-color="#c4c4c4"/><stop offset="0.63" stop-color="#d7d9df"/><stop offset="1" stop-color="#e3e6f1"/></linearGradient><clipPath id="clip-path-46"><path class="cls-1" d="M641.15,441l-5,2.93c3.68-2.14,8.76-1.84,14.38,1.41,11.15,6.44,20.17,22.05,20.13,34.86,0,6.37-2.27,10.85-5.89,13l5-2.93c3.62-2.11,5.87-6.59,5.89-13,0-12.81-9-28.42-20.14-34.86a18.37,18.37,0,0,0-9.06-2.77,10.54,10.54,0,0,0-5.31,1.36"/></clipPath><linearGradient id="Безымянный_градиент_27-2" x1="0" y1="702.35" x2="1" y2="702.35" gradientTransform="matrix(0, -56.96, 56.96, 0, -39347.73, 493.96)" xlink:href="#Безымянный_градиент_27"/><clipPath id="clip-path-48"><rect class="cls-1" x="159.66" y="567.3" width="46.33" height="28.58"/></clipPath><clipPath id="clip-path-49"><path class="cls-1" d="M198.7,571.47c-5.16-3-12-4.35-18.76-4.15h-7.52v1.73a28.24,28.24,0,0,0-5.59,2.42c-9.61,5.59-9.55,14.64.11,20.23a28.5,28.5,0,0,0,5.48,2.37v1.81h9.63a35.27,35.27,0,0,0,16.77-4.18c9.6-5.59,9.55-14.64-.12-20.23"/></clipPath><linearGradient id="Безымянный_градиент_23-2" x1="0" y1="702.44" x2="1" y2="702.44" gradientTransform="matrix(46.33, 0, 0, -46.33, 159.63, 33125.62)" xlink:href="#Безымянный_градиент_23"/><clipPath id="clip-path-50"><path class="cls-1" d="M148.77,581.52c0,3.68,2.42,7.37,7.29,10.18,9.68,5.59,25.31,5.59,34.92,0,4.77-2.78,7.16-6.4,7.17-10l0-5.18c0,3.64-2.4,7.27-7.18,10-9.6,5.58-25.23,5.58-34.91,0-4.87-2.81-7.29-6.5-7.28-10.19Z"/></clipPath><linearGradient id="Безымянный_градиент_27-3" x1="0" y1="702.43" x2="1" y2="702.43" gradientTransform="matrix(49.4, 0, 0, -49.4, 148.75, 35284.97)" xlink:href="#Безымянный_градиент_27"/><clipPath id="clip-path-52"><path class="cls-1" d="M641.15,332.53l-5,2.93c3.68-2.13,8.76-1.83,14.38,1.41,11.15,6.44,20.17,22.05,20.13,34.86,0,6.37-2.27,10.85-5.89,13l5-2.93c3.62-2.1,5.87-6.59,5.89-12.95,0-12.82-9-28.43-20.14-34.87a18.37,18.37,0,0,0-9.06-2.77,10.54,10.54,0,0,0-5.31,1.36"/></clipPath><linearGradient id="Безымянный_градиент_27-4" x1="0" y1="702.35" x2="1" y2="702.35" gradientTransform="matrix(0, -56.96, 56.96, 0, -39347.67, 385.52)" xlink:href="#Безымянный_градиент_27"/><clipPath id="clip-path-54"><path class="cls-1" d="M432,128.21l-5,2.93c3.68-2.14,8.76-1.84,14.38,1.4,11.15,6.44,20.17,22.05,20.13,34.87,0,6.37-2.27,10.85-5.89,13l5-2.93c3.63-2.11,5.88-6.59,5.9-13,0-12.81-9-28.42-20.14-34.87a18.45,18.45,0,0,0-9.06-2.76,10.41,10.41,0,0,0-5.31,1.36"/></clipPath><linearGradient id="Безымянный_градиент_27-5" x1="0" y1="702.35" x2="1" y2="702.35" gradientTransform="matrix(0, -56.96, 56.96, 0, -39556.53, 181.22)" xlink:href="#Безымянный_градиент_27"/><clipPath id="clip-path-56"><path class="cls-1" d="M566.24,205.74l-5,2.93c3.67-2.13,8.76-1.83,14.37,1.41,11.16,6.44,20.17,22,20.13,34.86,0,6.37-2.26,10.85-5.89,13l5-2.93c3.62-2.11,5.87-6.59,5.89-12.95,0-12.82-9-28.43-20.13-34.87a18.43,18.43,0,0,0-9.06-2.77,10.55,10.55,0,0,0-5.32,1.36"/></clipPath><linearGradient id="Безымянный_градиент_27-6" x1="0" y1="702.35" x2="1" y2="702.35" gradientTransform="translate(-39422.27 258.76) rotate(-90) scale(56.96)" xlink:href="#Безымянный_градиент_27"/><clipPath id="clip-path-58"><polygon class="cls-1" points="262.65 112.5 219.1 138.91 219.1 238.85 262.65 212.44 262.65 112.5"/></clipPath><linearGradient id="Безымянный_градиент_28" y1="702.44" x2="1" y2="702.44" gradientTransform="matrix(0, -126.35, -126.35, 0, 88994.33, 238.91)" gradientUnits="userSpaceOnUse"><stop offset="0" stop-color="#ffd8a4"/><stop offset="0.11" stop-color="#ffdfb5"/><stop offset="0.41" stop-color="#fff0dd"/><stop offset="0.65" stop-color="#fffbf6"/><stop offset="0.8" stop-color="#fff"/><stop offset="1" stop-color="#fff"/></linearGradient><clipPath id="clip-path-60"><path class="cls-1" d="M264.1,219.48c0,10.88-7.64,24.12-17.07,29.56-4.34,2.51-8.3,2.92-11.31,1.58,3.12,2.26,7.68,2.2,12.77-.74,9.42-5.44,17.07-18.68,17.07-29.56,0-5.87-2.23-9.86-5.76-11.43,2.67,1.94,4.3,5.57,4.3,10.59"/></clipPath><linearGradient id="Безымянный_градиент_29" y1="702.53" x2="1" y2="702.53" gradientTransform="matrix(48.27, 0, 0, -48.27, 226.02, 34139.68)" gradientUnits="userSpaceOnUse"><stop offset="0" stop-color="#ed995a"/><stop offset="0.5" stop-color="#dc804c"/><stop offset="0.8" stop-color="#d67747"/><stop offset="1" stop-color="#d67747"/></linearGradient><clipPath id="clip-path-61"><path class="cls-1" d="M240.89,200.63c-12,6.94-21.79,23.84-21.79,37.73,0,7,2.51,12,6.56,14.2h0l6.94,4c-3.65-2.39-5.89-7.15-5.89-13.8,0-13.89,9.75-30.79,21.79-37.73,5.88-3.4,11.22-3.78,15.14-1.67l-7-4h0a11.13,11.13,0,0,0-6-1.66,19.67,19.67,0,0,0-9.71,3"/></clipPath><linearGradient id="Безымянный_градиент_30" y1="702.35" x2="1" y2="702.35" gradientTransform="matrix(61.61, 0, 0, -61.61, 211.44, 43497.86)" gradientUnits="userSpaceOnUse"><stop offset="0" stop-color="#d67747"/><stop offset="0.39" stop-color="#e08c58"/><stop offset="1" stop-color="#f3b378"/></linearGradient><clipPath id="clip-path-63"><path class="cls-1" d="M240.85,227.58c0,1.91.64,3.32,1.81,4l1.32.75a4.4,4.4,0,0,1-1.68-3.9A13.87,13.87,0,0,1,247,218.8l-1.46-.84a13.84,13.84,0,0,0-4.71,9.62"/></clipPath><linearGradient id="Безымянный_градиент_31" y1="702.47" x2="1" y2="702.47" gradientTransform="matrix(13.24, 0, 0, -13.24, 237.72, 9522.79)" gradientUnits="userSpaceOnUse"><stop offset="0" stop-color="#d67747"/><stop offset="0.62" stop-color="#e79055"/><stop offset="1" stop-color="#ed995a"/></linearGradient><clipPath id="clip-path-65"><rect class="cls-1" x="292.43" y="630.73" width="100.09" height="43.61"/></clipPath><clipPath id="clip-path-66"><polygon class="cls-1" points="354.75 630.73 292.43 630.73 330.19 652.53 292.43 674.34 354.75 674.34 392.51 652.53 354.75 630.73"/></clipPath><linearGradient id="Безымянный_градиент_49-6" x1="0" y1="702.44" x2="1" y2="702.44" gradientTransform="matrix(100.09, 0, 0, -100.09, 292.38, 70958.54)" xlink:href="#Безымянный_градиент_49"/><clipPath id="clip-path-67"><rect class="cls-1" x="292.43" y="594.75" width="46.89" height="38.33"/></clipPath><clipPath id="clip-path-68"><polygon class="cls-1" points="301.55 611.28 339.31 633.08 330.19 616.55 292.43 594.75 301.55 611.28"/></clipPath><linearGradient id="Безымянный_градиент_49-7" x1="0" y1="702.44" x2="1" y2="702.44" gradientTransform="matrix(46.88, 0, 0, -46.88, 292.4, 33547.87)" xlink:href="#Безымянный_градиент_49"/><clipPath id="clip-path-69"><polygon class="cls-1" points="292.43 638.35 292.43 674.34 330.19 652.53 330.19 616.55 292.43 638.35"/></clipPath><linearGradient id="Безымянный_градиент_39" y1="702.44" x2="1" y2="702.44" gradientTransform="matrix(-37.76, 0, 0, 37.76, 330.21, -25881.55)" gradientUnits="userSpaceOnUse"><stop offset="0" stop-color="#c4c4c4"/><stop offset="0.15" stop-color="#c4c4c4"/><stop offset="0.61" stop-color="#8c8c8c"/><stop offset="1" stop-color="#8c8c8c"/></linearGradient><clipPath id="clip-path-71"><rect class="cls-1" x="279.49" y="585.16" width="25.86" height="9.93"/></clipPath><clipPath id="clip-path-72"><polygon class="cls-1" points="279.49 595.1 284.94 585.16 299.91 585.16 305.36 595.1 279.49 595.1"/></clipPath><linearGradient id="Безымянный_градиент_35" y1="702.44" x2="1" y2="702.44" gradientTransform="matrix(0, 9.93, 9.93, 0, -6685.34, 585.16)" gradientUnits="userSpaceOnUse"><stop offset="0" stop-color="#eaeef9"/><stop offset="0.46" stop-color="#f6f8fc"/><stop offset="1" stop-color="#fff"/></linearGradient><clipPath id="clip-path-73"><rect class="cls-1" x="266.56" y="592.65" width="18.38" height="7.86"/></clipPath><clipPath id="clip-path-74"><polygon class="cls-1" points="266.56 600.51 284.79 600.51 284.94 600.13 277.46 592.65 266.56 600.51"/></clipPath><linearGradient id="Безымянный_градиент_36" y1="702.44" x2="1" y2="702.44" gradientTransform="matrix(18.38, 0, 0, -18.38, 266.55, 13506.34)" gradientUnits="userSpaceOnUse"><stop offset="0" stop-color="#eaeef9"/><stop offset="0.14" stop-color="#bfc2cb"/><stop offset="0.38" stop-color="#7c7e84"/><stop offset="0.59" stop-color="#47484b"/><stop offset="0.77" stop-color="#202122"/><stop offset="0.91" stop-color="#090909"/><stop offset="1"/></linearGradient><clipPath id="clip-path-75"><rect class="cls-1" x="300.07" y="600.51" width="18.22" height="12.93"/></clipPath><clipPath id="clip-path-76"><polygon class="cls-1" points="318.29 600.51 300.07 600.51 305.36 613.44 318.29 600.51"/></clipPath><linearGradient id="Безымянный_градиент_37" y1="702.44" x2="1" y2="702.44" gradientTransform="translate(318.3 13407.21) rotate(180) scale(18.22)" gradientUnits="userSpaceOnUse"><stop offset="0" stop-color="#eaeef9"/><stop offset="0.03" stop-color="#e0e4ef"/><stop offset="0.23" stop-color="#a2a6ae"/><stop offset="0.43" stop-color="#6e7278"/><stop offset="0.61" stop-color="#46494d"/><stop offset="0.77" stop-color="#292c2f"/><stop offset="0.9" stop-color="#171a1d"/><stop offset="1" stop-color="#111416"/></linearGradient><clipPath id="clip-path-77"><rect class="cls-1" x="458.79" y="574.88" width="230.36" height="96.47"/></clipPath><clipPath id="clip-path-78"><path class="cls-1" d="M689.15,631.18v-56.3H609l-7,4h-9.14l-76.74,44.31-10,5.75c-5.33,3.08-18.32,5.58-29,5.58L474,636.4h-3.4l-11.79,6.81,48.76,28.15h47.59L609.42,663h6.17l20-11.56h0l-8.33-4.8h35.2Z"/></clipPath><linearGradient id="Безымянный_градиент_49-8" x1="0" y1="702.44" x2="1" y2="702.44" gradientTransform="matrix(230.36, 0, 0, -230.36, 458.68, 162437.28)" xlink:href="#Безымянный_градиент_49"/><clipPath id="clip-path-79"><polygon class="cls-1" points="493.13 655.76 493.13 665.82 504.92 659.01 504.92 648.96 493.13 655.76"/></clipPath><linearGradient id="Безымянный_градиент_39-2" x1="0" y1="702.44" x2="1" y2="702.44" gradientTransform="matrix(11.79, 0, 0, -11.79, 493.12, 8940.23)" xlink:href="#Безымянный_градиент_39"/><clipPath id="clip-path-81"><rect class="cls-1" x="452.95" y="583.81" width="51.68" height="41.37"/></clipPath><clipPath id="clip-path-82"><path class="cls-1" d="M499.71,602.41l-40.32,16.46,4.25,2.45L504,604.85l-4.24-2.44m-32.18,21.16,2.78,1.6,32.75-13.37c.52-1.13,1.05-2.25,1.57-3.38Zm0-39.76q-7.27,15.68-14.56,31.34l40.32-16.46-25.76-14.88"/></clipPath><linearGradient id="Безымянный_градиент_40" y1="702.44" x2="1" y2="702.44" gradientTransform="matrix(51.68, 0, 0, -51.68, 452.93, 36903.5)" gradientUnits="userSpaceOnUse"><stop offset="0" stop-color="#dadfef"/><stop offset="0.3" stop-color="#9c9fab"/><stop offset="1"/></linearGradient><clipPath id="clip-path-83"><rect class="cls-1" x="145.59" y="541.28" width="45.01" height="8.27"/></clipPath><clipPath id="clip-path-84"><polygon class="cls-1" points="190.6 541.28 150.49 541.28 145.59 549.55 190.6 549.55 190.6 541.28"/></clipPath><linearGradient id="Безымянный_градиент_49-9" x1="0" y1="702.44" x2="1" y2="702.44" gradientTransform="matrix(45.01, 0, 0, -45.01, 145.56, 32165.66)" xlink:href="#Безымянный_градиент_49"/><clipPath id="clip-path-85"><rect class="cls-1" x="157.36" y="530.38" width="45.01" height="5.26"/></clipPath><clipPath id="clip-path-86"><polygon class="cls-1" points="202.37 530.38 162.27 530.38 157.36 535.64 202.37 535.64 202.37 530.38"/></clipPath><linearGradient id="Безымянный_градиент_49-10" x1="0" y1="702.44" x2="1" y2="702.44" gradientTransform="matrix(45.01, 0, 0, -45.01, 157.34, 32153.19)" xlink:href="#Безымянный_градиент_49"/><clipPath id="clip-path-87"><path class="cls-1" d="M160.78,522.7s-2.55,2-3,3.23c-.56,1.52-.31,3.13-.89,5.15-.43,1.56-2.84,2.49-1.62,4.06,1.68,1.44,5.18.06,6-.9s3.4-6.61,3.4-6.61a7.2,7.2,0,0,0,.6-2.25,4.29,4.29,0,0,0-3.5-3,1.79,1.79,0,0,0-1,.3"/></clipPath><linearGradient id="Безымянный_градиент_45" y1="702.4" x2="1" y2="702.4" gradientTransform="translate(165.71 8444.08) rotate(180) scale(11.27)" gradientUnits="userSpaceOnUse"><stop offset="0" stop-color="#3d3e5b"/><stop offset="0.57" stop-color="#484c79"/><stop offset="1" stop-color="#525793"/></linearGradient><clipPath id="clip-path-89"><path class="cls-1" d="M139.28,481.77S133,503.93,137,509.22c3,4,15.4,13.43,20.4,16.66,2.55,1,3.91-2.26,3-3.74-1.42-1.91-10.65-14.73-15.61-16.48,1.67-7,6.33-16.41,5-23.89Z"/></clipPath><linearGradient id="Безымянный_градиент_44" y1="702.43" x2="1" y2="702.43" gradientTransform="matrix(22.4, 0, 0, -22.4, 135.76, 16238.76)" gradientUnits="userSpaceOnUse"><stop offset="0" stop-color="#4f4e6c"/><stop offset="0.31" stop-color="#3e3e5a"/><stop offset="0.7" stop-color="#2e2f4a"/><stop offset="1" stop-color="#282a44"/></linearGradient><clipPath id="clip-path-91"><path class="cls-1" d="M148.75,541.09c-1.46.72-3,2.27-4.81,3.35-1.39.82-2.52,1.19-2.74,2.53.24,2.2,3.1,2.69,4.39,2.58s7-2.45,7-2.45a7,7,0,0,0,2-1.22c.91-1.84.38-4.76-1.43-5.06,0,0-.87-.08-1.88-.08a6.64,6.64,0,0,0-2.52.35"/></clipPath><linearGradient id="Безымянный_градиент_45-2" x1="0" y1="702.44" x2="1" y2="702.44" gradientTransform="translate(-7028.83 550.56) rotate(-90) scale(10.22)" xlink:href="#Безымянный_градиент_45"/><clipPath id="clip-path-93"><path class="cls-1" d="M148.54,481.41c0,9.91-.11,21-.11,29.65,0,9.9,0,20.28.11,28.58-.09,2.54,3.84,2.86,5.06.62,1.05-7.54,3-16.73,2.44-25,2.5-10.83,6.69-24.75,5.67-33.25-1.2.39-3.9,0-6.59-.32a43.31,43.31,0,0,0-5.1-.49,5.42,5.42,0,0,0-1.48.16"/></clipPath><linearGradient id="Безымянный_градиент_46" y1="702.44" x2="1" y2="702.44" gradientTransform="matrix(0, 16.16, 16.16, 0, -11195.76, 499.96)" gradientUnits="userSpaceOnUse"><stop offset="0" stop-color="#61607d"/><stop offset="0.46" stop-color="#454561"/><stop offset="1" stop-color="#282a44"/></linearGradient><clipPath id="clip-path-94"><path class="cls-1" d="M150.6,440.61c-5.75.15-8.45,1.33-9.62,5.29-1.1,3.73-1.88,4.86-2.79,8.51-.41,1.65.88,6.64,1.22,11.87.4,6.33.51,11.94-.73,17,.91.37,1.38.63,3.19,1.25A53.31,53.31,0,0,1,161.17,496c.54-3.59,1.72-8.76,1.16-13.91-.63-5.73-3.8-10.38-4-14.25-.45-7.69,4.95-23.08,3.88-23.93-3.24-2.6-5.4-3.29-10.05-3.29l-1.54,0"/></clipPath><linearGradient id="Безымянный_градиент_47" y1="702.44" x2="1" y2="702.44" gradientTransform="matrix(24.37, 0, 0, -24.37, 138.1, 17586.42)" gradientUnits="userSpaceOnUse"><stop offset="0" stop-color="#f3b378"/><stop offset="0.36" stop-color="#ed9b6e"/><stop offset="1" stop-color="#e2735d"/></linearGradient><clipPath id="clip-path-96"><rect class="cls-1" x="343.44" y="567.26" width="43.14" height="7.93"/></clipPath><clipPath id="clip-path-97"><rect class="cls-1" x="343.44" y="567.26" width="43.14" height="7.93"/></clipPath><linearGradient id="Безымянный_градиент_49-11" x1="0" y1="702.44" x2="1" y2="702.44" gradientTransform="matrix(43.14, 0, 0, -43.14, 343.41, 30875.1)" xlink:href="#Безымянный_градиент_49"/><clipPath id="clip-path-98"><rect class="cls-1" x="323.58" y="555.82" width="43.14" height="7.93"/></clipPath><linearGradient id="Безымянный_градиент_49-12" x1="0" y1="702.44" x2="1" y2="702.44" gradientTransform="matrix(43.14, 0, 0, -43.14, 323.56, 30863.74)" xlink:href="#Безымянный_градиент_49"/><clipPath id="clip-path-100"><path class="cls-1" d="M328.58,553.45a16.3,16.3,0,0,1-5.61,1.44s-4,.18-4,6.41c0,1.28,4.21,3,5.52,2.27l8.63-5.06a2.32,2.32,0,0,0,.87-.77,1.62,1.62,0,0,0,.1-.18c1.88-3.47.1-4.79-2.3-4.79a8.82,8.82,0,0,0-3.26.68"/></clipPath><linearGradient id="Безымянный_градиент_51" y1="702.42" x2="1" y2="702.42" gradientTransform="translate(334.93 11728.33) rotate(180) scale(15.9)" gradientUnits="userSpaceOnUse"><stop offset="0" stop-color="#282a44"/><stop offset="0.3" stop-color="#2f314c"/><stop offset="1" stop-color="#3d3e5b"/></linearGradient><clipPath id="clip-path-102"><path class="cls-1" d="M348.24,564.9a16.3,16.3,0,0,1-5.61,1.44s-3.95.18-3.95,6.41c0,1.28,4.21,3,5.52,2.26l8.63-5.06a2.24,2.24,0,0,0,.87-.77,1.62,1.62,0,0,0,.1-.18c1.88-3.47.1-4.79-2.3-4.79a8.64,8.64,0,0,0-3.26.69"/></clipPath><linearGradient id="Безымянный_градиент_51-2" x1="0" y1="702.42" x2="1" y2="702.42" gradientTransform="translate(354.59 11740.03) rotate(180) scale(15.9)" xlink:href="#Безымянный_градиент_51"/><clipPath id="clip-path-104"><path class="cls-1" d="M320.38,495.56c-.81,19.82,11.49,20.44,12.56,25.48,1.25,5.9,2.61,11.8,3.76,17.35-.88,10,1.43,20.1,3.34,28.36,1,1.51,4.47,1.58,4.93-.23.54-9.4,1.6-17.43,1.86-28.66.07-11.52,1.21-22.5.73-34.3-1.93.28-7.76-1.86-13.59-4-5.48-2-11-4-13.2-4l-.39,0"/></clipPath><linearGradient id="Безымянный_градиент_52" y1="702.43" x2="1" y2="702.43" gradientTransform="translate(347.69 19735.04) rotate(180) scale(27.34)" gradientUnits="userSpaceOnUse"><stop offset="0" stop-color="#3d3e5b"/><stop offset="0.33" stop-color="#444462"/><stop offset="1" stop-color="#4f4e6c"/></linearGradient><clipPath id="clip-path-105"><path class="cls-1" d="M321.33,496.05s-1.59-25.62,7.95-39c-13.73,9.17-15.37,27.39-7.95,39"/></clipPath><linearGradient id="Безымянный_градиент_54" y1="702.54" x2="1" y2="702.54" gradientTransform="matrix(0, -11.39, -11.39, 0, 8325.68, 480.56)" gradientUnits="userSpaceOnUse"><stop offset="0" stop-color="#dadfef"/><stop offset="0.27" stop-color="#e9ecf5"/><stop offset="0.68" stop-color="#f9fafd"/><stop offset="1" stop-color="#fff"/></linearGradient><clipPath id="clip-path-106"><path class="cls-1" d="M320.29,495a15.82,15.82,0,0,0,8.36,11.77c8.36,4.69,17.11,4.7,20.09-1.07-1.12-10.74-2.16-19.47,0-29.76-.64-5.69-1.08-6.54-.36-9.85-.25-1.12-3.67-3.49-6.16-5.76-2.69-2.46-4.51-4.8-5.9-5.08a9,9,0,0,0-1.76-.18c-10.24,0-15.17,19.36-14.26,39.93"/></clipPath><linearGradient id="Безымянный_градиент_54-2" x1="0" y1="702.42" x2="1" y2="702.42" gradientTransform="translate(348.75 20541.5) rotate(180) scale(28.56)" xlink:href="#Безымянный_градиент_54"/><clipPath id="clip-path-108"><path class="cls-1" d="M341.28,467.28c-2.58,3.41-1.48,8.37,0,10.39,3.75,6,7.93,10.45,8.34,15.25.38,4.45-1.43,10.31-4.7,13.2-1,2.55-.31,4.11,2.24,4.4,6.39-3.27,10.09-12.43,10.2-17.46.19-8.4-3.89-18.93-9.07-27.2a2.63,2.63,0,0,0-2.27-1,6.21,6.21,0,0,0-4.72,2.41"/></clipPath><linearGradient id="Безымянный_градиент_55" y1="702.42" x2="1" y2="702.42" gradientTransform="matrix(0, -26.88, -26.88, 0, 19230.11, 501.66)" gradientUnits="userSpaceOnUse"><stop offset="0" stop-color="#c9c9c9"/><stop offset="0.31" stop-color="#cbccce"/><stop offset="0.68" stop-color="#d2d4dd"/><stop offset="1" stop-color="#dadfef"/></linearGradient></defs><title>Ресурс 1</title><g class="cls-2"><g id="Слой_2" data-name="Слой 2"><g id="Слой_1-2" data-name="Слой 1"><g class="cls-3"><g class="cls-3"><g class="cls-4"><g class="cls-5"><g class="cls-6"><rect class="cls-7" x="58.45" y="324.44" width="107.02" height="70.37"/></g></g></g></g><polygon class="cls-8" points="58.45 377.48 13.58 351.57 90.59 307.12 135.45 333.02 58.45 377.48"/><polygon class="cls-9" points="116.56 322.11 123.63 326.2 46.62 370.66 39.55 366.57 116.56 322.11"/><polygon class="cls-10" points="84.42 362.48 77.34 366.57 32.47 340.67 39.55 336.58 84.42 362.48"/><polygon class="cls-11" points="58.45 394.81 135.45 350.34 135.45 333.02 58.45 377.48 58.45 394.81"/><polygon class="cls-12" points="77.34 366.57 84.42 362.48 84.42 379.81 77.34 383.9 77.34 366.57"/><polygon class="cls-11" points="58.45 394.81 13.58 368.9 13.58 351.57 58.45 377.48 58.45 394.81"/><polygon class="cls-12" points="46.62 370.66 39.55 366.57 39.55 383.9 46.62 387.99 46.62 370.66"/><g class="cls-3"><g class="cls-4"><g class="cls-13"><g class="cls-14"><rect class="cls-15" x="160.65" y="335.8" width="165.54" height="71.33"/></g></g></g></g><polygon class="cls-9" points="160.65 321.21 95.57 283.64 160.65 246.07 225.73 283.64 160.65 321.21"/><polygon class="cls-16" points="188.32 262.04 198.06 267.67 132.98 305.24 123.24 299.61 188.32 262.04"/><polygon class="cls-16" points="198.06 299.61 188.32 305.24 123.24 267.67 132.98 262.04 198.06 299.61"/><polygon class="cls-17" points="160.65 407.13 222.43 371.46 222.43 303.97 160.65 339.64 160.65 407.13"/><polygon class="cls-18" points="186.67 324.62 196.41 318.99 196.41 386.49 186.67 392.11 186.67 324.62"/><polygon class="cls-16" points="222.43 308.69 160.65 344.36 160.65 341.54 222.43 305.88 222.43 308.69"/><polygon class="cls-17" points="160.65 341.54 225.73 303.97 225.73 283.64 160.65 321.21 160.65 341.54"/><polygon class="cls-18" points="188.32 305.24 198.06 299.61 198.06 319.94 188.32 325.57 188.32 305.24"/><polygon class="cls-12" points="160.65 407.13 98.87 371.46 98.87 303.97 160.65 339.64 160.65 407.13"/><polygon class="cls-18" points="134.63 324.62 124.89 318.99 124.89 386.49 134.63 392.11 134.63 324.62"/><polygon class="cls-16" points="98.87 308.69 160.65 344.36 160.65 341.54 98.87 305.88 98.87 308.69"/><polygon class="cls-12" points="160.65 341.54 95.57 303.97 95.57 283.64 160.65 321.21 160.65 341.54"/><polygon class="cls-18" points="132.98 305.24 123.24 299.61 123.24 319.94 132.98 325.57 132.98 305.24"/><g class="cls-3"><g class="cls-4"><g class="cls-19"><g class="cls-20"><rect class="cls-21" x="173.38" y="279.35" width="27.2" height="18.81"/></g></g></g></g><g class="cls-22"><rect class="cls-23" x="151.63" y="271.59" width="39.09" height="33.42" transform="translate(-121.22 124.21) rotate(-30)"/></g><g class="cls-3"><path class="cls-18" d="M174.33,288.52c-1.39-1.78-3-2.87-4.29-2.85-8.62.13-14.72.36-16,.41-1.3-1.55-7.4-8.82-16-18.9a5.22,5.22,0,0,0-4.3-2.11c-1.42.19-2.28,1.35-2.28,3.12a11.89,11.89,0,0,0,5.14,9.21l34.89,20.14c2.16,1.25,5.14.8,5.14-3.27a10,10,0,0,0-2.28-5.75"/></g><g class="cls-24"><rect class="cls-25" x="129.27" y="262.95" width="25.78" height="25.47" transform="translate(-118.79 108.02) rotate(-30)"/></g><g class="cls-26"><rect class="cls-27" x="155.09" y="283" width="21.6" height="18.23" transform="translate(-123.83 122.08) rotate(-30)"/></g><g class="cls-28"><rect class="cls-29" x="128.03" y="251.91" width="42.44" height="40.55" transform="translate(-116.1 111.09) rotate(-30)"/></g><g class="cls-3"><g class="cls-4"><g class="cls-30"><g class="cls-31"><rect class="cls-32" x="98.87" y="354.14" width="15.01" height="25.99"/></g></g></g><g class="cls-4"><g class="cls-33"><g class="cls-34"><rect class="cls-35" x="4.38" y="385.86" width="143.81" height="83.03"/></g></g></g><path class="cls-36" d="M96.31,389.43V386.9a11.65,11.65,0,0,0-1.15,6.47,12,12,0,0,1,1.15-3.94"/></g><g class="cls-37"><rect class="cls-38" x="6.19" y="438.21" width="43.08" height="20.62"/></g><g class="cls-3"><path class="cls-8" d="M104.89,405.8c-8.87-5.12-11.72-12.39-8.58-18.9l-6.19-3.58L0,435.36l6.19,3.57c11.27-1.82,23.87-.17,32.74,4.95s11.72,12.39,8.58,18.9l6.18,3.57,90.12-52-6.18-3.57c-11.28,1.82-23.88.17-32.74-4.95"/><polygon class="cls-39" points="70.32 398.94 71.96 397.98 68.35 395.9 66.7 396.85 70.32 398.94"/><polygon class="cls-39" points="76.58 402.55 78.22 401.6 74.6 399.51 72.96 400.46 76.58 402.55"/><polygon class="cls-39" points="82.84 406.16 84.48 405.21 80.86 403.12 79.22 404.07 82.84 406.16"/><polygon class="cls-39" points="89.1 409.77 90.74 408.83 87.12 406.74 85.48 407.69 89.1 409.77"/><polygon class="cls-39" points="95.36 413.39 97 412.44 93.38 410.35 91.74 411.3 95.36 413.39"/><polygon class="cls-39" points="101.61 417 103.26 416.06 99.64 413.97 98 414.92 101.61 417"/><polygon class="cls-39" points="107.87 420.62 109.52 419.67 105.9 417.58 104.26 418.53 107.87 420.62"/><polygon class="cls-39" points="114.13 424.23 115.78 423.28 112.16 421.19 110.52 422.14 114.13 424.23"/><polygon class="cls-39" points="120.39 427.85 122.04 426.89 118.42 424.81 116.78 425.76 120.39 427.85"/><polygon class="cls-12" points="57.43 412.17 70.96 404.36 66.7 401.91 53.18 409.72 57.43 412.17"/><polygon class="cls-12" points="48.29 417.45 54.85 413.67 50.59 411.21 44.03 415 48.29 417.45"/><polygon class="cls-12" points="41.25 421.51 45.21 419.23 40.95 416.77 37 419.06 41.25 421.51"/><polygon class="cls-12" points="33.79 425.82 37.74 423.54 33.49 421.08 29.53 423.37 33.79 425.82"/><path class="cls-39" d="M58.17,424.76a12.35,12.35,0,0,0-11.14,0c-3.07,1.78-3.07,4.66,0,6.44a12.35,12.35,0,0,0,11.14,0c3.07-1.78,3.07-4.66,0-6.44M49.12,430c-1.92-1.11-1.92-2.91,0-4a7.71,7.71,0,0,1,7,0c1.92,1.11,1.92,2.91,0,4a7.69,7.69,0,0,1-7,0m25.32-5.23c-3.07,1.78-3.07,4.66,0,6.43a12.29,12.29,0,0,0,11.14,0c3.07-1.77,3.07-4.65,0-6.43a12.35,12.35,0,0,0-11.14,0m9,5.23a7.71,7.71,0,0,1-7,0c-1.92-1.11-1.92-2.91,0-4a7.71,7.71,0,0,1,7,0c1.92,1.11,1.92,2.91,0,4M64.83,418.12v19.72h3V418.12Z"/><polygon class="cls-8" points="120.39 427.85 53.69 466.36 53.69 468.89 120.39 430.38 120.39 427.85"/><polygon class="cls-11" points="53.69 466.35 47.5 462.78 47.5 465.31 53.69 468.88 53.69 466.35"/><polygon class="cls-11" points="6.19 438.93 0 435.36 0 437.89 6.19 441.46 6.19 438.93"/><polygon class="cls-8" points="143.81 414.32 122.04 426.89 122.04 429.43 143.81 416.85 143.81 414.32"/><g class="cls-4"><g class="cls-40"><g class="cls-41"><rect class="cls-42" x="117.03" y="345.97" width="587.03" height="281.46"/></g></g></g><path class="cls-11" d="M583.44,500.79c0,5.07-3.59,7.15-8,4.61L306.86,350.33c-4.4-2.54-8-8.77-8-13.84V133.9c0-5.08,3.59-7.15,8-4.61L575.45,284.35c4.4,2.54,8,8.77,8,13.85Z"/></g><g class="cls-43"><rect class="cls-44" x="225.44" y="78.25" width="440.05" height="474.15" transform="translate(-97.98 264.98) rotate(-30)"/></g><g class="cls-3"><polygon class="cls-39" points="575.45 492.99 306.86 337.92 306.86 138.52 575.45 293.59 575.45 492.99"/><path class="cls-16" d="M393.32,614.06c-4.4,2.54-11.6,2.54-16,0L108.74,459c-4.4-2.54-4.4-6.7,0-9.24L291.81,344.07c4.4-2.54,11.59-2.54,16,0L576.39,499.14c4.4,2.53,4.4,6.69,0,9.23Z"/><polygon class="cls-18" points="308.08 366.06 294.95 358.48 301.52 354.68 314.65 362.27 308.08 366.06"/><polygon class="cls-18" points="330.21 378.83 317.07 371.25 323.64 367.46 336.77 375.04 330.21 378.83"/><polygon class="cls-18" points="352.33 391.6 339.19 384.02 345.76 380.23 358.9 387.81 352.33 391.6"/><polygon class="cls-18" points="374.45 404.38 361.32 396.79 367.89 393 381.02 400.58 374.45 404.38"/><polygon class="cls-18" points="396.57 417.15 383.44 409.56 390.01 405.77 403.14 413.36 396.57 417.15"/><polygon class="cls-18" points="418.7 429.92 405.56 422.34 412.13 418.55 425.26 426.13 418.7 429.92"/><polygon class="cls-18" points="440.82 442.69 427.69 435.11 434.25 431.32 447.39 438.9 440.82 442.69"/><polygon class="cls-18" points="462.94 455.47 449.81 447.88 456.38 444.09 469.51 451.68 462.94 455.47"/><polygon class="cls-18" points="485.06 468.24 471.93 460.66 478.5 456.86 491.63 464.45 485.06 468.24"/><polygon class="cls-18" points="507.19 481.01 494.05 473.43 500.62 469.64 513.75 477.22 507.19 481.01"/><polygon class="cls-18" points="529.31 493.79 516.18 486.2 522.75 482.41 535.88 489.99 529.31 493.79"/><polygon class="cls-18" points="551.43 506.56 538.3 498.97 544.87 495.18 558 502.76 551.43 506.56"/><polygon class="cls-18" points="296.44 384.88 272.83 371.25 285.96 363.66 309.57 377.3 296.44 384.88"/><polygon class="cls-18" points="284.22 402.31 251.62 383.49 264.76 375.9 297.36 394.73 284.22 402.31"/><polygon class="cls-18" points="271.09 420.27 229.5 396.26 242.63 388.68 284.22 412.69 271.09 420.27"/><polygon class="cls-18" points="226.34 425.35 202.73 411.72 220.51 401.45 244.13 415.08 226.34 425.35"/><polygon class="cls-18" points="258.94 444.18 235.33 430.54 253.11 420.27 276.73 433.91 258.94 444.18"/><polygon class="cls-18" points="291.55 463 267.94 449.37 285.72 439.1 309.33 452.73 291.55 463"/><polygon class="cls-18" points="403.96 527.9 380.35 514.26 398.13 504 421.75 517.63 403.96 527.9"/><polygon class="cls-18" points="459.21 559.8 412.89 533.06 430.68 522.79 477 549.53 459.21 559.8"/><polygon class="cls-18" points="371.41 509.11 300.54 468.19 318.32 457.92 389.2 498.84 371.41 509.11"/><polygon class="cls-18" points="324.75 401.23 305.43 390.07 318.56 382.49 337.89 393.64 324.75 401.23"/><polygon class="cls-18" points="312.54 418.66 293.21 407.5 306.35 399.92 325.67 411.07 312.54 418.66"/><polygon class="cls-18" points="300.01 436.27 280.68 425.12 293.82 417.53 313.14 428.69 300.01 436.27"/><polygon class="cls-18" points="328.32 452.62 309 441.46 322.13 433.88 341.46 445.04 328.32 452.62"/><polygon class="cls-18" points="356.63 468.96 337.31 457.81 350.44 450.23 369.77 461.38 356.63 468.96"/><polygon class="cls-18" points="384.95 485.31 365.62 474.16 378.76 466.57 398.08 477.73 384.95 485.31"/><polygon class="cls-18" points="413.26 501.66 393.94 490.5 407.07 482.92 426.4 494.08 413.26 501.66"/><polygon class="cls-18" points="441.57 518.01 422.25 506.85 435.38 499.26 454.71 510.42 441.57 518.01"/><polygon class="cls-18" points="486.59 544 450.56 523.19 463.7 515.61 499.73 536.41 486.59 544"/><polygon class="cls-18" points="340.85 435.01 321.52 423.85 334.66 416.27 353.99 427.42 340.85 435.01"/><polygon class="cls-18" points="369.16 451.35 349.84 440.19 362.98 432.61 382.3 443.77 369.16 451.35"/><polygon class="cls-18" points="397.48 467.7 378.15 456.54 391.29 448.96 410.61 460.12 397.48 467.7"/><polygon class="cls-18" points="425.79 484.05 406.47 472.89 419.6 465.31 438.93 476.46 425.79 484.05"/><polygon class="cls-18" points="454.1 500.39 434.78 489.24 447.92 481.65 467.24 492.81 454.1 500.39"/><polygon class="cls-18" points="508.11 531.57 463.09 505.58 476.23 498 521.24 523.99 508.11 531.57"/><polygon class="cls-18" points="353.07 417.57 333.74 406.42 346.88 398.83 366.2 409.99 353.07 417.57"/><polygon class="cls-18" points="381.38 433.92 362.06 422.76 375.19 415.18 394.52 426.34 381.38 433.92"/><polygon class="cls-18" points="409.69 450.27 390.37 439.11 403.5 431.53 422.83 442.69 409.69 450.27"/><polygon class="cls-18" points="438.01 466.62 418.68 455.46 431.82 447.87 451.14 459.03 438.01 466.62"/><polygon class="cls-18" points="466.32 482.96 447 471.81 460.13 464.22 479.46 475.38 466.32 482.96"/><polygon class="cls-18" points="494.63 499.31 475.31 488.15 488.44 480.57 507.77 491.73 494.63 499.31"/><polygon class="cls-18" points="529.31 519.33 503.62 504.5 516.76 496.92 542.45 511.75 529.31 519.33"/><polygon class="cls-11" points="541.84 486.55 329.6 364.01 335.98 360.33 548.22 482.87 541.84 486.55"/><polygon class="cls-18" points="371.41 524.94 263.1 462.41 195.8 501.27 304.11 563.8 371.41 524.94"/></g><g class="cls-45"><rect class="cls-46" x="105.44" y="454.54" width="474.27" height="166.78"/></g><g class="cls-3"><g class="cls-4"><g class="cls-47"><g class="cls-48"><rect class="cls-49" x="200.08" y="342.98" width="126.11" height="54.05"/></g></g></g><path class="cls-8" d="M306.86,138.52v26.71L575.45,320.3V293.59L306.86,138.52"/><path class="cls-12" d="M309.89,153.62c0-5.44,3.81-7.64,8.52-4.92s8.53,9.33,8.53,14.76-3.82,7.64-8.53,4.93-8.52-9.33-8.52-14.77"/><path class="cls-8" d="M319.64,158.77c.51-.22.84-.85.84-1.8a5,5,0,0,0-2.07-4c-1.14-.66-2.07.08-2.07,1.66a5.42,5.42,0,0,0,.85,2.77c-1.46-.29-3,.36-3,3l8.44,4.87a9.49,9.49,0,0,0-3-6.5"/><polygon class="cls-39" points="353.92 175.78 453.07 233.02 453.07 239.55 353.92 182.31 353.92 175.78"/><polygon class="cls-39" points="471.05 243.41 488.49 253.48 488.49 260 471.05 249.93 471.05 243.41"/><polygon class="cls-39" points="496.78 258.26 514.22 268.33 514.22 274.85 496.78 264.78 496.78 258.26"/><polygon class="cls-39" points="522.5 273.11 539.94 283.18 539.94 289.71 522.5 279.64 522.5 273.11"/><polygon class="cls-39" points="548.23 287.96 565.66 298.03 565.66 304.56 548.23 294.49 548.23 287.96"/><polygon class="cls-16" points="322.07 180.94 560.24 318.44 560.24 348.6 322.07 211.09 322.07 180.94"/><g class="cls-4"><g class="cls-50"><g class="cls-51"><rect class="cls-52" x="404.13" y="267.04" width="151.6" height="202.44"/></g></g></g><polygon class="cls-11" points="400.25 379.69 551.84 467.21 551.84 352.3 400.25 264.77 400.25 379.69"/><polygon class="cls-16" points="547.04 355.07 405.04 273.08 405.04 376.92 547.04 458.91 547.04 355.07"/><polygon class="cls-8" points="553.62 351.27 551.84 352.3 551.84 467.21 553.62 466.19 553.62 351.27"/><polygon class="cls-11" points="402.03 263.75 400.25 264.77 551.84 352.3 553.62 351.27 402.03 263.75"/><polygon class="cls-8" points="406.21 273.76 405.04 273.08 405.04 376.92 406.21 376.25 406.21 273.76"/><polygon class="cls-11" points="406.21 376.25 405.04 376.92 547.04 458.91 547.04 457.56 406.21 376.25"/><path class="cls-9" d="M505.8,410.26c0-5.77,4.05-8.11,9.05-5.23s9,9.9,9,15.67-4,8.11-9,5.22-9.05-9.89-9.05-15.66"/><path class="cls-9" d="M419.41,337c0-3.4,2.39-4.79,5.34-3.08a11.81,11.81,0,0,1,5.34,9.26c0,3.41-2.39,4.79-5.34,3.08a11.79,11.79,0,0,1-5.34-9.26"/><path class="cls-9" d="M531.94,377.8c0-2.37,1.67-3.34,3.73-2.15a8.26,8.26,0,0,1,3.72,6.45c0,2.37-1.67,3.34-3.72,2.15a8.24,8.24,0,0,1-3.73-6.45"/><g class="cls-4"><g class="cls-53"><polygon class="cls-54" points="443.81 335.09 513.33 375.22 513.33 412.45 443.81 372.32 443.81 335.09"/></g></g><polygon class="cls-8" points="510.8 376.08 509.63 376.76 509.63 413.99 510.8 413.32 510.8 376.08"/><path class="cls-55" d="M498.84,372.42l-24.16-37.81-24,9.85-.38-.93,24.39-10a.51.51,0,0,1,.61.19l24.38,38.17Z"/><polygon class="cls-11" points="441.29 335.95 440.12 336.63 509.63 376.76 510.8 376.08 441.29 335.95"/><polygon class="cls-11" points="440.12 336.63 509.63 376.76 509.63 413.99 440.12 373.86 440.12 336.63"/><path class="cls-39" d="M458.91,365.16a16.76,16.76,0,0,1-2.41-2.36,2.71,2.71,0,0,1-.57-1.62q0-.84.57-.93a2.36,2.36,0,0,1,1.45.42,9.71,9.71,0,0,1,1.8,1.39,9.92,9.92,0,0,1,1.44,1.75l1.08-1.14a12.87,12.87,0,0,0-2-2.36,11.76,11.76,0,0,0-2.28-1.76,4,4,0,0,0-3-.69c-.8.23-1.21,1-1.21,2.27a6,6,0,0,0,1.07,3.47,9.72,9.72,0,0,0,1.22,1.51c.46.47,1.13,1.09,2,1.84a11.48,11.48,0,0,1,1.87,1.89,2.69,2.69,0,0,1,.54,1.57c0,.53-.19.85-.58.95a2.13,2.13,0,0,1-1.55-.41,11.71,11.71,0,0,1-3.79-4l-1.27,1a14.78,14.78,0,0,0,5,5.14,3.79,3.79,0,0,0,3.12.66c.79-.3,1.18-1,1.18-2.26a6,6,0,0,0-.93-3.29,14.17,14.17,0,0,0-2.79-3.06m9.75-.14-5.3,10.83,2.17,1.25,1.2-2.46,6,3.47L474,382l2.16,1.25-5.29-16.94Zm-1.1,7.93,2.18-4.46,2.19,7Zm12.26-1.48-2-1.17v13.88l7.52,4.34V386.3l-5.49-3.17Zm9.74,17.3v-3.71l5.76,3.32V386.3L489.56,383V379.3L496,383v-2.2l-8.45-4.88V389.8l8.65,5v-2.2Z"/><polygon class="cls-8" points="390.56 367.53 332.37 333.94 332.37 222.02 390.57 255.62 390.56 367.53"/><polygon class="cls-56" points="323.89 226.91 332.37 222.02 332.37 333.94 323.89 338.83 323.89 226.91"/><polygon class="cls-16" points="323.89 338.83 332.37 333.94 390.56 367.53 382.08 372.43 323.89 338.83"/><g class="cls-4"><g class="cls-57"><g class="cls-58"><rect class="cls-59" x="330.04" y="304.79" width="62.86" height="64.35" transform="translate(-111.09 481.52) rotate(-60)"/></g></g></g><polygon class="cls-8" points="336.23 229.74 339.06 231.42 339.06 330.08 336.23 331.71 336.23 229.74"/><polygon class="cls-60" points="337.17 230.33 338.11 230.87 338.11 330.62 337.17 331.17 337.17 230.33"/><polygon class="cls-11" points="336.23 331.71 339.06 330.08 385.77 357.05 385.77 360.31 336.23 331.71"/><polygon class="cls-60" points="337.17 331.17 338.11 330.62 385.77 358.14 385.77 359.23 337.17 331.17"/><path class="cls-11" d="M337.17,230.33V331.17l48.6,28.06V258.39l-48.6-28.06"/><polygon class="cls-39" points="382.08 260.51 390.56 255.62 390.56 367.53 382.09 372.43 382.08 260.51"/><polygon class="cls-39" points="323.89 226.91 332.37 222.02 390.56 255.62 382.08 260.51 323.89 226.91"/><g class="cls-61"><g class="cls-62"><g class="cls-63"><rect class="cls-64" x="337.17" y="230.33" width="48.6" height="96.81"/></g></g></g><g class="cls-61"><g class="cls-65"><g class="cls-66"><rect class="cls-67" x="352.84" y="326.3" width="32.93" height="32.93"/></g></g></g><g class="cls-4"><g class="cls-68"><g class="cls-69"><rect class="cls-70" x="538.24" y="329.47" width="35.57" height="52.49"/></g></g></g><polygon class="cls-18" points="534.65 364.55 560.24 349.78 560.24 329.47 534.65 355.93 534.65 364.55"/><polygon class="cls-12" points="309.72 226.06 296.49 218.43 322.07 191.96 335.31 199.6 309.72 226.06"/><polygon class="cls-39" points="322.95 233.7 309.73 226.06 335.31 199.6 348.54 207.24 322.95 233.7"/><polygon class="cls-12" points="336.19 241.34 322.95 233.7 348.54 207.24 361.77 214.88 336.19 241.34"/><polygon class="cls-39" points="349.42 248.98 336.19 241.34 361.77 214.88 375 222.52 349.42 248.98"/><polygon class="cls-12" points="362.65 256.62 349.42 248.98 375 222.52 388.23 230.16 362.65 256.62"/><polygon class="cls-39" points="375.88 264.26 362.65 256.62 388.23 230.16 401.46 237.8 375.88 264.26"/><polygon class="cls-12" points="389.11 271.9 375.88 264.26 401.46 237.8 414.69 245.44 389.11 271.9"/><polygon class="cls-39" points="402.34 279.54 389.11 271.9 414.69 245.44 427.92 253.07 402.34 279.54"/><polygon class="cls-12" points="415.57 287.18 402.34 279.54 427.92 253.07 441.15 260.71 415.57 287.18"/><polygon class="cls-39" points="428.8 294.82 415.57 287.18 441.15 260.71 454.39 268.35 428.8 294.82"/><polygon class="cls-12" points="442.04 302.45 428.81 294.82 454.39 268.35 467.62 275.99 442.04 302.45"/><polygon class="cls-39" points="455.27 310.09 442.04 302.45 467.62 275.99 480.85 283.63 455.27 310.09"/><polygon class="cls-12" points="468.5 317.73 455.27 310.09 480.85 283.63 494.08 291.27 468.5 317.73"/><polygon class="cls-39" points="481.73 325.37 468.5 317.73 494.08 291.27 507.31 298.91 481.73 325.37"/><polygon class="cls-12" points="494.96 333.01 481.73 325.37 507.31 298.91 520.54 306.55 494.96 333.01"/><polygon class="cls-39" points="508.19 340.65 494.96 333.01 520.54 306.55 533.77 314.19 508.19 340.65"/><polygon class="cls-12" points="521.42 348.29 508.19 340.65 533.77 314.19 547 321.83 521.42 348.29"/><polygon class="cls-39" points="534.65 355.93 521.42 348.29 547 321.83 560.24 329.47 534.65 355.93"/><path class="cls-17" d="M296.49,218.42V227a14.63,14.63,0,0,0,6.61,11.46c3.66,2.11,6.62.4,6.62-3.82v-8.62Z"/><path class="cls-18" d="M309.72,226.06v8.62a14.61,14.61,0,0,0,6.62,11.46c3.65,2.11,6.61.4,6.61-3.82V233.7Z"/><path class="cls-17" d="M323,233.7v8.62a14.61,14.61,0,0,0,6.62,11.46c3.65,2.11,6.61.39,6.61-3.82v-8.62Z"/><path class="cls-18" d="M336.18,241.34V250a14.61,14.61,0,0,0,6.62,11.45c3.65,2.11,6.61.4,6.61-3.81V249Z"/><path class="cls-17" d="M349.41,249v8.62A14.61,14.61,0,0,0,356,269.05c3.65,2.11,6.62.4,6.62-3.81v-8.62Z"/><path class="cls-18" d="M362.65,256.62v8.62a14.63,14.63,0,0,0,6.61,11.45c3.65,2.11,6.62.4,6.62-3.82v-8.61Z"/><path class="cls-17" d="M375.88,264.26v8.61a14.63,14.63,0,0,0,6.61,11.46c3.66,2.11,6.62.4,6.62-3.82V271.9Z"/><path class="cls-18" d="M389.11,271.9v8.61A14.63,14.63,0,0,0,395.72,292c3.66,2.11,6.62.4,6.62-3.82v-8.61Z"/><path class="cls-17" d="M402.34,279.54v8.61A14.61,14.61,0,0,0,409,299.61c3.65,2.11,6.61.4,6.61-3.82v-8.62Z"/><path class="cls-18" d="M415.57,287.17v8.62a14.61,14.61,0,0,0,6.62,11.46c3.65,2.11,6.61.4,6.61-3.82v-8.62Z"/><path class="cls-17" d="M428.8,294.81v8.62a14.61,14.61,0,0,0,6.62,11.46c3.65,2.11,6.62.4,6.62-3.82v-8.62Z"/><path class="cls-18" d="M442,302.45v8.62a14.6,14.6,0,0,0,6.61,11.46c3.65,2.11,6.62.4,6.62-3.82v-8.62Z"/><path class="cls-17" d="M455.27,310.09v8.62a14.63,14.63,0,0,0,6.61,11.46c3.66,2.11,6.62.4,6.62-3.82v-8.62Z"/><path class="cls-18" d="M468.5,317.73v8.62a14.63,14.63,0,0,0,6.61,11.46c3.66,2.11,6.62.4,6.62-3.82v-8.62Z"/><path class="cls-17" d="M481.73,325.37V334a14.63,14.63,0,0,0,6.61,11.46c3.66,2.1,6.62.4,6.62-3.82V333Z"/><path class="cls-18" d="M495,333v8.62a14.58,14.58,0,0,0,6.62,11.45c3.65,2.12,6.61.4,6.61-3.81v-8.62Z"/><path class="cls-17" d="M508.19,340.65v8.62a14.61,14.61,0,0,0,6.62,11.45c3.65,2.11,6.61.4,6.61-3.81v-8.62Z"/><path class="cls-18" d="M521.42,348.29v8.62A14.61,14.61,0,0,0,528,368.36c3.65,2.11,6.61.4,6.62-3.82v-8.61Z"/><path class="cls-18" d="M446.47,156a1.74,1.74,0,1,1,.64,2.37,1.73,1.73,0,0,1-.64-2.37"/><path class="cls-18" d="M454,160.36a1.74,1.74,0,1,1,.64,2.37,1.74,1.74,0,0,1-.64-2.37"/><path class="cls-18" d="M461.51,164.71a1.75,1.75,0,0,1,2.38-.64,1.73,1.73,0,1,1-2.38.64"/><path class="cls-18" d="M469,169.05a1.74,1.74,0,1,1,.64,2.37,1.73,1.73,0,0,1-.64-2.37"/><path class="cls-18" d="M476.56,173.39a1.74,1.74,0,1,1,.64,2.37,1.73,1.73,0,0,1-.64-2.37"/><path class="cls-18" d="M484.09,177.73a1.74,1.74,0,1,1,.64,2.37,1.73,1.73,0,0,1-.64-2.37"/><path class="cls-18" d="M491.61,182.08a1.74,1.74,0,1,1,.64,2.36,1.73,1.73,0,0,1-.64-2.36"/><path class="cls-18" d="M499.14,186.42a1.74,1.74,0,1,1,.64,2.37,1.73,1.73,0,0,1-.64-2.37"/><path class="cls-18" d="M506.66,190.76a1.74,1.74,0,1,1,.64,2.37,1.73,1.73,0,0,1-.64-2.37"/><path class="cls-18" d="M514.19,195.1a1.74,1.74,0,1,1,.64,2.37,1.73,1.73,0,0,1-.64-2.37"/><path class="cls-18" d="M521.71,199.44a1.74,1.74,0,1,1,.64,2.37,1.74,1.74,0,0,1-.64-2.37"/><path class="cls-18" d="M529.23,203.79a1.74,1.74,0,1,1,.64,2.37,1.73,1.73,0,0,1-.64-2.37"/><path class="cls-18" d="M536.76,208.13a1.74,1.74,0,1,1,.64,2.37,1.73,1.73,0,0,1-.64-2.37"/><path class="cls-18" d="M544.28,212.47a1.74,1.74,0,1,1,.64,2.37,1.73,1.73,0,0,1-.64-2.37"/><path class="cls-18" d="M551.81,216.81a1.74,1.74,0,1,1,.64,2.37,1.74,1.74,0,0,1-.64-2.37"/><path class="cls-18" d="M559.33,221.16a1.74,1.74,0,1,1,.64,2.37,1.73,1.73,0,0,1-.64-2.37"/><path class="cls-18" d="M566.86,225.5a1.74,1.74,0,1,1,.64,2.37,1.73,1.73,0,0,1-.64-2.37"/><path class="cls-18" d="M574.38,229.84a1.74,1.74,0,1,1,.64,2.37,1.73,1.73,0,0,1-.64-2.37"/><path class="cls-18" d="M581.9,234.18a1.74,1.74,0,1,1,.64,2.37,1.74,1.74,0,0,1-.64-2.37"/><path class="cls-18" d="M589.43,238.53a1.74,1.74,0,1,1,.64,2.36,1.73,1.73,0,0,1-.64-2.36"/><path class="cls-18" d="M597,242.87a1.74,1.74,0,1,1,.64,2.37,1.73,1.73,0,0,1-.64-2.37"/><path class="cls-18" d="M604.48,247.21a1.74,1.74,0,1,1,.64,2.37,1.73,1.73,0,0,1-.64-2.37"/><path class="cls-18" d="M612,251.55a1.74,1.74,0,1,1,.64,2.37,1.74,1.74,0,0,1-.64-2.37"/><path class="cls-18" d="M619.53,255.9a1.74,1.74,0,1,1,.64,2.36,1.73,1.73,0,0,1-.64-2.36"/><path class="cls-18" d="M627.05,260.24a1.74,1.74,0,1,1,.64,2.37,1.73,1.73,0,0,1-.64-2.37"/><path class="cls-18" d="M634.57,264.58a1.74,1.74,0,1,1,.64,2.37,1.73,1.73,0,0,1-.64-2.37"/><path class="cls-18" d="M642.1,268.92a1.74,1.74,0,1,1,.64,2.37,1.74,1.74,0,0,1-.64-2.37"/><path class="cls-18" d="M650.49,279.92a1.72,1.72,0,1,1-1.73,1.72,1.72,1.72,0,0,1,1.73-1.72"/><path class="cls-18" d="M650.49,272.63a1.72,1.72,0,1,1-1.73,1.72,1.72,1.72,0,0,1,1.73-1.72"/><path class="cls-18" d="M650.49,288.51a1.72,1.72,0,1,1-1.73,1.71,1.71,1.71,0,0,1,1.73-1.71"/><path class="cls-18" d="M650.49,297.09a1.72,1.72,0,1,1-1.73,1.72,1.72,1.72,0,0,1,1.73-1.72"/><path class="cls-18" d="M650.49,305.68a1.72,1.72,0,1,1-1.73,1.72,1.72,1.72,0,0,1,1.73-1.72"/><path class="cls-18" d="M650.49,314.27a1.72,1.72,0,1,1-1.73,1.72,1.72,1.72,0,0,1,1.73-1.72"/><path class="cls-18" d="M650.49,322.86a1.72,1.72,0,1,1-1.73,1.71,1.72,1.72,0,0,1,1.73-1.71"/><path class="cls-18" d="M650.49,331.44a1.72,1.72,0,1,1-1.73,1.72,1.72,1.72,0,0,1,1.73-1.72"/><path class="cls-18" d="M650.49,340a1.72,1.72,0,1,1-1.73,1.72,1.72,1.72,0,0,1,1.73-1.72"/><path class="cls-18" d="M650.49,348.62a1.72,1.72,0,1,1-1.73,1.72,1.72,1.72,0,0,1,1.73-1.72"/><path class="cls-18" d="M650.49,357.21a1.72,1.72,0,1,1-1.73,1.72,1.72,1.72,0,0,1,1.73-1.72"/><path class="cls-18" d="M650.49,365.8a1.72,1.72,0,1,1-1.73,1.71,1.71,1.71,0,0,1,1.73-1.71"/><path class="cls-18" d="M650.49,374.38a1.72,1.72,0,1,1-1.73,1.72,1.72,1.72,0,0,1,1.73-1.72"/><path class="cls-18" d="M650.49,383a1.72,1.72,0,1,1-1.73,1.72,1.72,1.72,0,0,1,1.73-1.72"/><path class="cls-18" d="M650.49,391.56a1.72,1.72,0,1,1-1.73,1.72,1.72,1.72,0,0,1,1.73-1.72"/><path class="cls-18" d="M650.49,400.15a1.72,1.72,0,1,1-1.73,1.71,1.72,1.72,0,0,1,1.73-1.71"/><path class="cls-18" d="M650.49,408.73a1.72,1.72,0,1,1-1.73,1.72,1.72,1.72,0,0,1,1.73-1.72"/><path class="cls-18" d="M650.49,417.32a1.72,1.72,0,1,1-1.73,1.72,1.72,1.72,0,0,1,1.73-1.72"/><path class="cls-18" d="M650.49,425.91a1.72,1.72,0,1,1-1.73,1.72,1.72,1.72,0,0,1,1.73-1.72"/><path class="cls-18" d="M650.49,434.5a1.72,1.72,0,1,1-1.73,1.71,1.72,1.72,0,0,1,1.73-1.71"/><path class="cls-18" d="M650.49,443.08a1.72,1.72,0,1,1-1.73,1.72,1.72,1.72,0,0,1,1.73-1.72"/><path class="cls-18" d="M650.49,451.67a1.72,1.72,0,1,1-1.73,1.72,1.72,1.72,0,0,1,1.73-1.72"/><path class="cls-18" d="M650.49,460.26a1.72,1.72,0,1,1-1.73,1.72,1.72,1.72,0,0,1,1.73-1.72"/><path class="cls-18" d="M650.49,468.85a1.72,1.72,0,1,1-1.73,1.72,1.72,1.72,0,0,1,1.73-1.72"/><path class="cls-18" d="M650.49,477.44a1.72,1.72,0,1,1-1.73,1.71,1.72,1.72,0,0,1,1.73-1.71"/><path class="cls-18" d="M650.49,486a1.72,1.72,0,1,1-1.73,1.72,1.72,1.72,0,0,1,1.73-1.72"/><path class="cls-18" d="M650.49,494.61a1.72,1.72,0,1,1-1.73,1.72,1.72,1.72,0,0,1,1.73-1.72"/><path class="cls-18" d="M650.49,503.2a1.72,1.72,0,1,1-1.73,1.72,1.72,1.72,0,0,1,1.73-1.72"/><path class="cls-18" d="M650.49,511.79a1.72,1.72,0,1,1-1.73,1.71,1.72,1.72,0,0,1,1.73-1.71"/><path class="cls-18" d="M650.49,520.37a1.72,1.72,0,1,1-1.73,1.72,1.72,1.72,0,0,1,1.73-1.72"/><path class="cls-18" d="M650.49,529a1.72,1.72,0,1,1-1.73,1.72,1.72,1.72,0,0,1,1.73-1.72"/><path class="cls-18" d="M650.49,537.55a1.72,1.72,0,1,1-1.73,1.72,1.72,1.72,0,0,1,1.73-1.72"/><path class="cls-18" d="M93.59,533.6a1.75,1.75,0,1,1,.65,2.37,1.73,1.73,0,0,1-.65-2.37"/><path class="cls-18" d="M101.17,538a1.76,1.76,0,1,1,.65,2.38,1.75,1.75,0,0,1-.65-2.38"/><path class="cls-18" d="M108.76,542.37a1.75,1.75,0,1,1,.65,2.37,1.73,1.73,0,0,1-.65-2.37"/><path class="cls-18" d="M116.35,546.75a1.75,1.75,0,1,1,.65,2.38,1.74,1.74,0,0,1-.65-2.38"/><path class="cls-18" d="M123.94,551.14a1.75,1.75,0,1,1,.65,2.37,1.74,1.74,0,0,1-.65-2.37"/><path class="cls-18" d="M131.52,555.52a1.75,1.75,0,1,1,.65,2.38,1.74,1.74,0,0,1-.65-2.38"/><path class="cls-18" d="M139.11,559.9a1.75,1.75,0,1,1,.65,2.38,1.75,1.75,0,0,1-.65-2.38"/><path class="cls-18" d="M146.7,564.29a1.75,1.75,0,1,1,.65,2.37,1.73,1.73,0,0,1-.65-2.37"/><path class="cls-18" d="M154.29,568.67a1.75,1.75,0,1,1,.65,2.38,1.75,1.75,0,0,1-.65-2.38"/><path class="cls-18" d="M161.87,573.06a1.75,1.75,0,1,1,.65,2.37,1.74,1.74,0,0,1-.65-2.37"/><path class="cls-18" d="M169.46,577.44a1.75,1.75,0,1,1,.65,2.38,1.74,1.74,0,0,1-.65-2.38"/><path class="cls-18" d="M177.05,581.83a1.75,1.75,0,1,1,.65,2.37,1.74,1.74,0,0,1-.65-2.37"/><path class="cls-18" d="M184.63,586.21a1.75,1.75,0,1,1,.66,2.38,1.74,1.74,0,0,1-.66-2.38"/><path class="cls-18" d="M192.22,590.59a1.76,1.76,0,1,1,.65,2.38,1.74,1.74,0,0,1-.65-2.38"/><path class="cls-18" d="M199.81,595a1.75,1.75,0,1,1,.65,2.37,1.73,1.73,0,0,1-.65-2.37"/><path class="cls-18" d="M207.4,599.36a1.75,1.75,0,1,1,.65,2.38,1.75,1.75,0,0,1-.65-2.38"/><path class="cls-18" d="M215,603.75a1.75,1.75,0,1,1,.66,2.37,1.74,1.74,0,0,1-.66-2.37"/><path class="cls-18" d="M222.57,608.13a1.76,1.76,0,1,1,.65,2.38,1.75,1.75,0,0,1-.65-2.38"/><path class="cls-18" d="M230.16,612.52a1.75,1.75,0,1,1,.65,2.37,1.73,1.73,0,0,1-.65-2.37"/><path class="cls-18" d="M237.75,616.9a1.75,1.75,0,1,1,.65,2.38,1.74,1.74,0,0,1-.65-2.38"/><path class="cls-18" d="M245.33,621.29a1.75,1.75,0,1,1,.65,2.37,1.75,1.75,0,0,1-.65-2.37"/><path class="cls-18" d="M252.92,625.67a1.75,1.75,0,1,1,.65,2.38,1.73,1.73,0,0,1-.65-2.38"/><path class="cls-18" d="M260.51,630.05a1.75,1.75,0,1,1,.65,2.38,1.75,1.75,0,0,1-.65-2.38"/><path class="cls-18" d="M268.1,634.44a1.75,1.75,0,1,1,.65,2.37,1.73,1.73,0,0,1-.65-2.37"/><path class="cls-18" d="M275.68,638.82a1.76,1.76,0,1,1,.65,2.38,1.76,1.76,0,0,1-.65-2.38"/><path class="cls-18" d="M283.27,643.21a1.75,1.75,0,1,1,.65,2.37,1.73,1.73,0,0,1-.65-2.37"/><path class="cls-18" d="M290.86,647.59a1.75,1.75,0,1,1,.65,2.38,1.74,1.74,0,0,1-.65-2.38"/><path class="cls-18" d="M298.45,652a1.75,1.75,0,1,1,.65,2.37,1.74,1.74,0,0,1-.65-2.37"/><path class="cls-18" d="M306,656.36a1.75,1.75,0,1,1,.65,2.38,1.74,1.74,0,0,1-.65-2.38"/><path class="cls-18" d="M313.62,660.74a1.75,1.75,0,1,1,.65,2.38,1.75,1.75,0,0,1-.65-2.38"/><path class="cls-18" d="M321.21,665.13a1.75,1.75,0,1,1,.65,2.37,1.73,1.73,0,0,1-.65-2.37"/><path class="cls-18" d="M328.79,669.51a1.76,1.76,0,0,1,3,1.76,1.76,1.76,0,0,1-3-1.76"/><path class="cls-18" d="M336.38,673.9a1.75,1.75,0,1,1,.65,2.37,1.74,1.74,0,0,1-.65-2.37"/><path class="cls-18" d="M344,678.28a1.75,1.75,0,1,1,.65,2.38,1.75,1.75,0,0,1-.65-2.38"/><path class="cls-18" d="M351.56,682.67a1.75,1.75,0,1,1,.65,2.37,1.73,1.73,0,0,1-.65-2.37"/><path class="cls-18" d="M359.14,687.05a1.76,1.76,0,1,1,.66,2.38,1.75,1.75,0,0,1-.66-2.38"/><path class="cls-18" d="M366.73,691.44a1.75,1.75,0,1,1,.65,2.37,1.73,1.73,0,0,1-.65-2.37"/><path class="cls-18" d="M374.32,695.82a1.75,1.75,0,1,1,.65,2.38,1.73,1.73,0,0,1-.65-2.38"/><path class="cls-18" d="M381.66,699.83a1.75,1.75,0,0,1,3,1.75,1.75,1.75,0,0,1-3-1.75"/><path class="cls-18" d="M388.14,697.61a1.73,1.73,0,1,1,2.36.63,1.73,1.73,0,0,1-2.36-.63"/><path class="cls-18" d="M395.63,693.28a1.73,1.73,0,1,1,2.37.63,1.72,1.72,0,0,1-2.37-.63"/><path class="cls-18" d="M403.13,689a1.73,1.73,0,0,1,3-1.73,1.73,1.73,0,1,1-3,1.73"/><path class="cls-18" d="M410.62,684.62a1.73,1.73,0,1,1,2.37.64,1.73,1.73,0,0,1-2.37-.64"/><path class="cls-18" d="M418.12,680.3a1.73,1.73,0,1,1,2.36.63,1.73,1.73,0,0,1-2.36-.63"/><path class="cls-18" d="M425.62,676a1.73,1.73,0,1,1,2.36.63,1.73,1.73,0,0,1-2.36-.63"/><path class="cls-18" d="M433.11,671.64a1.73,1.73,0,1,1,2.37.63,1.72,1.72,0,0,1-2.37-.63"/><path class="cls-18" d="M440.61,667.31A1.73,1.73,0,1,1,443,668a1.72,1.72,0,0,1-2.36-.64"/><path class="cls-18" d="M448.1,663a1.73,1.73,0,1,1,2.37.63,1.74,1.74,0,0,1-2.37-.63"/><path class="cls-18" d="M455.6,658.66a1.73,1.73,0,1,1,2.36.63,1.73,1.73,0,0,1-2.36-.63"/><path class="cls-18" d="M463.09,654.33a1.73,1.73,0,1,1,2.37.63,1.73,1.73,0,0,1-2.37-.63"/><path class="cls-18" d="M470.59,650a1.73,1.73,0,1,1,2.36.64,1.73,1.73,0,0,1-2.36-.64"/><path class="cls-18" d="M478.08,645.67a1.73,1.73,0,1,1,2.37.64,1.74,1.74,0,0,1-2.37-.64"/><path class="cls-18" d="M485.58,641.35A1.73,1.73,0,1,1,488,642a1.74,1.74,0,0,1-2.37-.63"/><path class="cls-18" d="M493.08,637a1.73,1.73,0,1,1,2.36.63,1.72,1.72,0,0,1-2.36-.63"/><path class="cls-18" d="M500.57,632.69a1.73,1.73,0,1,1,2.37.64,1.74,1.74,0,0,1-2.37-.64"/><path class="cls-18" d="M508.07,628.36a1.73,1.73,0,1,1,2.36.64,1.73,1.73,0,0,1-2.36-.64"/><path class="cls-18" d="M515.56,624a1.74,1.74,0,0,1,.64-2.37,1.73,1.73,0,0,1,1.73,3,1.74,1.74,0,0,1-2.37-.63"/><path class="cls-18" d="M523.06,619.71a1.73,1.73,0,1,1,2.37.63,1.74,1.74,0,0,1-2.37-.63"/><path class="cls-18" d="M530.56,615.38a1.73,1.73,0,1,1,2.36.63,1.72,1.72,0,0,1-2.36-.63"/><path class="cls-18" d="M538.05,611.05a1.73,1.73,0,1,1,2.37.64,1.74,1.74,0,0,1-2.37-.64"/><path class="cls-18" d="M545.55,606.73a1.73,1.73,0,1,1,2.36.63,1.73,1.73,0,0,1-2.36-.63"/><path class="cls-18" d="M553,602.4a1.74,1.74,0,0,1,.64-2.37,1.73,1.73,0,1,1-.64,2.37"/><path class="cls-18" d="M560.54,598.07a1.73,1.73,0,1,1,2.36.63,1.73,1.73,0,0,1-2.36-.63"/><path class="cls-18" d="M568,593.74a1.73,1.73,0,1,1,2.37.64,1.73,1.73,0,0,1-2.37-.64"/><path class="cls-18" d="M575.53,589.41a1.73,1.73,0,1,1,2.37.64,1.73,1.73,0,0,1-2.37-.64"/><path class="cls-18" d="M583,585.09a1.73,1.73,0,1,1,2.36.63,1.73,1.73,0,0,1-2.36-.63"/><path class="cls-18" d="M590.52,580.76a1.73,1.73,0,1,1,2.37.63,1.74,1.74,0,0,1-2.37-.63"/><path class="cls-18" d="M598,576.43a1.73,1.73,0,1,1,2.36.64,1.73,1.73,0,0,1-2.36-.64"/><path class="cls-18" d="M605.51,572.1a1.73,1.73,0,1,1,2.37.64,1.74,1.74,0,0,1-2.37-.64"/><path class="cls-18" d="M613,567.78a1.73,1.73,0,1,1,2.36.63,1.74,1.74,0,0,1-2.36-.63"/><path class="cls-18" d="M620.51,563.45a1.73,1.73,0,1,1,2.36.63,1.73,1.73,0,0,1-2.36-.63"/><path class="cls-18" d="M628,559.12a1.73,1.73,0,1,1,2.37.63,1.74,1.74,0,0,1-2.37-.63"/><path class="cls-18" d="M635.5,554.79a1.73,1.73,0,0,1,3-1.73,1.73,1.73,0,1,1-3,1.73"/><path class="cls-18" d="M643,550.47a1.73,1.73,0,1,1,2.37.63,1.74,1.74,0,0,1-2.37-.63"/><g class="cls-4"><g class="cls-71"><g class="cls-72"><rect class="cls-73" x="66" y="514.46" width="51.2" height="28.76"/></g></g></g></g><g class="cls-74"><rect class="cls-75" x="57.55" y="523.67" width="49.4" height="20.95"/></g><g class="cls-3"><path class="cls-16" d="M64.87,533.86c-9.67-5.59-9.73-14.64-.12-20.23s25.24-5.58,34.91,0,9.73,14.64.12,20.23-25.24,5.58-34.91,0"/><path class="cls-11" d="M83.43,530.15a4.93,4.93,0,0,0-2.45-.57l-3.77-8a5.62,5.62,0,0,0,1.33-.54,3.17,3.17,0,0,0,1.14-1l11.85,1.07a1.76,1.76,0,0,0,1,1.19,5.3,5.3,0,0,0,4.78,0c1.33-.77,1.33-2,0-2.77a5.32,5.32,0,0,0-4.79,0,2.18,2.18,0,0,0-.71.61L79.94,519a2.42,2.42,0,0,0-1.4-1.89,7.5,7.5,0,0,0-6.78,0c-1.87,1.08-1.87,2.83,0,3.91a7.17,7.17,0,0,0,3.82.8l3.77,8a3.56,3.56,0,0,0-.72.31c-1.32.76-1.32,2,0,2.76a5.32,5.32,0,0,0,4.79,0c1.33-.76,1.33-2,0-2.76"/></g><g class="cls-76"><rect class="cls-77" x="625.39" y="433.3" width="61.04" height="66.14" transform="translate(-145.31 390.43) rotate(-30)"/></g><g class="cls-3"><path class="cls-39" d="M650.49,445.31c-11.16-6.44-20.23-1.28-20.27,11.54s9,28.43,20.14,34.87,20.22,1.27,20.26-11.55-9-28.43-20.13-34.86"/><path class="cls-11" d="M657.22,463c-3.79-6.57-9.94-10.11-13.73-7.93s-3.79,9.29,0,15.85l6.87,11.89,6.86-4c3.79-2.19,3.79-9.29,0-15.85m-6.86,9.25a10.12,10.12,0,0,1-4.58-7.93c0-2.92,2.05-4.11,4.58-2.65a10.11,10.11,0,0,1,4.57,7.94c0,2.91-2,4.1-4.57,2.64"/><g class="cls-4"><g class="cls-78"><g class="cls-79"><rect class="cls-80" x="157.22" y="567.12" width="51.2" height="28.76"/></g></g></g></g><g class="cls-81"><rect class="cls-82" x="148.76" y="576.33" width="49.41" height="20.95"/></g><g class="cls-3"><path class="cls-16" d="M156.08,586.52c-9.67-5.58-9.72-14.64-.12-20.22s25.25-5.59,34.92,0,9.72,14.64.11,20.22-25.23,5.58-34.91,0"/><path class="cls-12" d="M177.65,571.75a3.53,3.53,0,0,0-1.76-2,9.81,9.81,0,0,0-8.89,0,3.12,3.12,0,0,0-1.84,2.57v8.76h15.17a9.1,9.1,0,0,0,4.45-1.07c2.45-1.41,2.45-3.71,0-5.13a8.39,8.39,0,0,0-3.43-1l-3.32-.23Z"/></g><g class="cls-83"><rect class="cls-84" x="625.39" y="324.86" width="61.04" height="66.14" transform="translate(-91.09 375.91) rotate(-30)"/></g><g class="cls-3"><path class="cls-39" d="M650.49,336.87c-11.16-6.44-20.23-1.27-20.27,11.54s9,28.43,20.14,34.87,20.22,1.27,20.26-11.55-9-28.42-20.13-34.86"/><path class="cls-11" d="M650.26,358.24a7.12,7.12,0,0,1-3.22-5.56c0-2.05,1.44-2.88,3.22-1.86a7.11,7.11,0,0,1,3.21,5.57l2.34,1.35a12.5,12.5,0,0,0-4.38-8.8v-2.38l-2.34-1.34v2.37c-2.5-.82-4.38.67-4.38,3.74a12.26,12.26,0,0,0,5.55,9.61,6.59,6.59,0,0,1,2.27,2.4,6.51,6.51,0,0,1,.94,3.17,2,2,0,0,1-3.21,1.86A7.09,7.09,0,0,1,647,362.8l-2.33-1.35a12.5,12.5,0,0,0,4.38,8.8v2.37l2.34,1.35V371.6a3.33,3.33,0,0,0,2.75-.14,3.92,3.92,0,0,0,1.63-3.6,12.33,12.33,0,0,0-5.55-9.62"/></g><g class="cls-85"><rect class="cls-86" x="416.19" y="120.54" width="61.04" height="66.14" transform="translate(-16.96 243.93) rotate(-30)"/></g><g class="cls-3"><path class="cls-16" d="M441.29,132.54c-11.16-6.44-20.23-1.27-20.27,11.55s9,28.43,20.13,34.87,20.23,1.27,20.27-11.55-9-28.43-20.13-34.87"/><path class="cls-11" d="M445.63,149.42c-3.48-6-9.16-9.32-12.65-7.3s-3.49,8.56,0,14.61c3.19,5.52,8.2,8.72,11.7,7.69l5.11,8.86c.49.85,1.29,1.31,1.77,1s.49-1.19,0-2l-5.11-8.86c2.64-2.52,2.37-8.46-.82-14M443.87,161c-2.52,1.45-6.61-.91-9.12-5.26s-2.51-9.08,0-10.53,6.6.91,9.12,5.26,2.51,9.08,0,10.53"/></g><g class="cls-87"><rect class="cls-88" x="550.48" y="198.07" width="61.04" height="66.14" transform="translate(-37.73 321.46) rotate(-30)"/></g><g class="cls-3"><path class="cls-16" d="M575.58,210.08c-11.15-6.44-20.23-1.27-20.26,11.54s9,28.43,20.13,34.87,20.23,1.27,20.26-11.55-9-28.42-20.13-34.86"/><path class="cls-11" d="M583.29,236.18l-1.71,5-11.73-6.77-2.92-11.91-.2-.77-3.21-1.85v1.94l2,1.15,2.93,11.91.19.77,14.15,8.17.19-.55,1.91-5.56Zm-2.87,7.51c-1-.56-1.77-.1-1.77,1a3.88,3.88,0,0,0,1.77,3.05c1,.57,1.76.12,1.76-1a3.94,3.94,0,0,0-1.76-3.07m-9.24-5.33c-1-.57-1.77-.11-1.77,1a3.89,3.89,0,0,0,1.77,3.06c1,.56,1.77.11,1.77-1a3.94,3.94,0,0,0-1.77-3.06m8.36-5.25-1.19-2.06-2.14,1.24v-8.37l-1.68-1v8.36l-2.14-3.7-1.19.69,4.17,7.22Z"/></g><g class="cls-89"><rect class="cls-90" x="219.1" y="112.5" width="43.55" height="126.35"/></g><g class="cls-3"><path class="cls-9" d="M230,239.19c0-10.89,7.64-24.12,17.07-29.57s17.07-1,17.07,9.86S256.46,243.6,247,249s-17.07,1-17.07-9.85"/><path class="cls-10" d="M248.49,205c-12,6.94-21.79,23.84-21.79,37.73s9.76,19.53,21.79,12.58,21.78-23.84,21.78-37.74-9.75-19.52-21.78-12.57m0,44.86c-9.43,5.45-17.07,1-17.07-9.85s7.64-24.12,17.07-29.57,17.07-1,17.07,9.86-7.64,24.12-17.07,29.56"/></g><g class="cls-91"><rect class="cls-92" x="224.13" y="206.97" width="53.02" height="47.84" transform="translate(-74.64 332.5) rotate(-60)"/></g><g class="cls-93"><rect class="cls-94" x="204.73" y="193.09" width="73.27" height="68.01" transform="translate(-75.99 322.58) rotate(-60)"/></g><g class="cls-3"><path class="cls-10" d="M248.49,228.58a2.3,2.3,0,0,1-2.3.23,2.26,2.26,0,0,1-.94-2.09,7.16,7.16,0,0,1,3.24-5.6c1.79-1,3.24-.2,3.24,1.86l2.94-1.7c0-3.34-2-5-4.71-4.18v-2.67l-2.94,1.7v2.67a13.86,13.86,0,0,0-4.72,9.62c0,1.91.65,3.32,1.82,4s2.72.51,4.37-.44,3.24-.2,3.24,1.85a7.18,7.18,0,0,1-3.24,5.61c-1.79,1-3.24.2-3.24-1.86l-2.95,1.7c0,3.34,2,5,4.72,4.18v2.46l2.94-1.7v-2.46a13.88,13.88,0,0,0,4.72-9.63c0-3.92-2.78-5.51-6.19-3.54"/><path class="cls-17" d="M249.93,220.68a2.89,2.89,0,0,1,.35,1.46l1.45.84c0-1.46-.73-2.3-1.8-2.3"/><path class="cls-12" d="M251.68,227.49c-1.13-.83-2.8-.82-4.65.25a2.85,2.85,0,0,1-1.44.43,1.69,1.69,0,0,0,.6.64,2.3,2.3,0,0,0,2.3-.23,4.45,4.45,0,0,1,4.26-.49l-1.06-.6Z"/><path class="cls-12" d="M249.94,231.53a2.93,2.93,0,0,1,.34,1.45,7.19,7.19,0,0,1-3.25,5.61,2.93,2.93,0,0,1-1.44.44c.53.92,1.63,1.13,2.9.4a7.16,7.16,0,0,0,3.24-5.61c0-1.45-.73-2.29-1.79-2.29"/><path class="cls-17" d="M245.56,243.64v1.43l1.46.84v-2.46a4.55,4.55,0,0,1-1.46.19"/><path class="cls-12" d="M250,216.07v1a3.75,3.75,0,0,1,2.68.09l-1.08-.63h0a3.09,3.09,0,0,0-1.6-.5"/><polygon class="cls-12" points="248.5 213.59 245.56 215.29 247.02 216.13 249.96 214.43 248.5 213.59"/></g><g class="cls-95"><rect class="cls-96" x="236.17" y="218.88" width="15.52" height="12.52" transform="translate(-73.01 323.82) rotate(-60)"/></g><g class="cls-3"><polygon class="cls-17" points="245.56 215.29 245.56 217.96 247.01 218.8 247.01 216.13 245.56 215.29"/><path class="cls-17" d="M242.3,239.27l-1.45-.84a4.48,4.48,0,0,0,1.53,3.78h0l0,0a3,3,0,0,0,.55.31l.87.5a4.5,4.5,0,0,1-1.52-3.77"/><polygon class="cls-12" points="245.25 237.57 243.79 236.73 240.85 238.43 242.3 239.27 245.25 237.57"/><g class="cls-4"><g class="cls-97"><g class="cls-98"><rect class="cls-99" x="292.43" y="630.73" width="100.09" height="43.61"/></g></g></g><g class="cls-4"><g class="cls-100"><g class="cls-101"><rect class="cls-102" x="292.43" y="594.75" width="46.89" height="38.33"/></g></g></g><polygon class="cls-18" points="283.3 611.28 245.54 633.08 254.66 616.55 292.43 594.75 283.3 611.28"/><polygon class="cls-18" points="254.66 652.53 292.43 674.34 292.43 638.35 254.66 616.55 254.66 652.53"/><polygon class="cls-18" points="254.66 638.59 292.43 660.39 292.43 638.35 254.66 616.55 254.66 638.59"/><polygon class="cls-11" points="248.23 639.61 285.99 661.42 292.43 638.35 254.66 616.55 248.23 639.61"/></g><g class="cls-103"><rect class="cls-104" x="292.43" y="616.55" width="37.77" height="57.79"/></g><g class="cls-3"><polygon class="cls-11" points="336.62 639.61 298.86 661.42 292.43 638.35 330.19 616.55 336.62 639.61"/><polygon class="cls-8" points="292.43 594.75 292.43 638.35 330.19 616.55 292.43 594.75"/><polygon class="cls-55" points="254.66 616.55 292.43 638.35 292.43 638.35 292.43 594.75 254.66 616.55"/><polygon class="cls-11" points="292.38 630.73 285.82 634.54 292.43 638.35 299.03 634.54 292.38 630.73"/><polygon class="cls-18" points="305.36 613.44 292.43 632.8 318.29 600.51 305.36 613.44"/><polygon class="cls-18" points="266.56 600.51 292.43 632.8 279.5 613.44 266.56 600.51"/><polygon class="cls-16" points="279.5 613.44 292.43 632.8 305.36 613.44 279.5 613.44"/><polygon class="cls-105" points="279.5 613.44 266.56 600.51 279.5 587.58 305.36 587.58 318.29 600.51 305.36 613.44 279.5 613.44"/><polygon class="cls-39" points="284.94 600.13 277.46 592.65 284.94 585.16 299.91 585.16 307.4 592.65 299.91 600.13 284.94 600.13"/><polygon class="cls-18" points="279.5 613.44 284.94 600.13 299.91 600.13 305.36 613.44 279.5 613.44"/><g class="cls-4"><g class="cls-106"><g class="cls-107"><rect class="cls-108" x="279.49" y="585.17" width="25.87" height="9.93"/></g></g></g><polygon class="cls-16" points="277.46 592.65 266.56 600.51 279.5 613.44 284.94 600.13 277.46 592.65"/><polygon class="cls-16" points="266.56 600.51 277.46 592.65 284.94 585.16 279.5 587.58 266.56 600.51"/><polygon class="cls-16" points="307.4 592.65 318.29 600.51 305.36 613.44 299.91 600.13 307.4 592.65"/><polygon class="cls-18" points="318.29 600.51 307.4 592.65 299.91 585.16 305.36 587.58 318.29 600.51"/><g class="cls-61"><g class="cls-109"><g class="cls-110"><rect class="cls-111" x="266.56" y="592.65" width="18.38" height="7.86"/></g></g></g><g class="cls-61"><g class="cls-112"><g class="cls-113"><rect class="cls-114" x="300.07" y="600.51" width="18.22" height="12.93"/></g></g></g><g class="cls-4"><g class="cls-115"><g class="cls-116"><rect class="cls-117" x="458.79" y="574.88" width="230.36" height="96.47"/></g></g></g><path class="cls-8" d="M511.59,660.3c-1.57-.91-2.55-2.86-2.55-5.63,0-5.54,3.89-12.27,8.69-15,2.4-1.38,4.57-1.51,6.14-.61s2.54,2.86,2.54,5.63c0,5.53-3.89,12.27-8.68,15-2.4,1.38-4.57,1.51-6.14.61"/><path class="cls-39" d="M513,652.42a10.56,10.56,0,0,1,4.78-8.28c2.64-1.53,4.78-.29,4.78,2.76a10.57,10.57,0,0,1-4.78,8.28c-2.64,1.52-4.78.29-4.78-2.76"/><path class="cls-55" d="M509,654.67c0-5.54,3.89-12.27,8.69-15,2.4-1.38,4.57-1.51,6.14-.61l-6.65-3.83c-1.57-.91-3.74-.78-6.14.61-4.8,2.77-8.68,9.5-8.68,15,0,2.76,1,4.71,2.54,5.62l6.65,3.84c-1.57-.91-2.55-2.86-2.55-5.63"/><path class="cls-8" d="M582,619.66c-1.57-.9-2.54-2.85-2.54-5.62,0-5.54,3.89-12.27,8.68-15,2.4-1.38,4.57-1.51,6.14-.61s2.54,2.86,2.54,5.63c0,5.53-3.88,12.27-8.68,15-2.4,1.38-4.57,1.51-6.14.6"/><path class="cls-39" d="M583.32,611.79a10.56,10.56,0,0,1,4.78-8.28c2.64-1.53,4.78-.29,4.78,2.76a10.57,10.57,0,0,1-4.78,8.28c-2.64,1.52-4.78.29-4.78-2.76"/><path class="cls-55" d="M579.42,614c0-5.54,3.88-12.27,8.68-15,2.4-1.38,4.57-1.51,6.14-.6l-6.65-3.84c-1.57-.91-3.74-.78-6.14.61-4.79,2.77-8.68,9.5-8.68,15,0,2.77,1,4.71,2.54,5.62l6.65,3.83c-1.57-.9-2.54-2.85-2.54-5.62"/><path class="cls-8" d="M563.05,630.58c-1.57-.91-2.54-2.85-2.54-5.62,0-5.54,3.89-12.27,8.68-15,2.4-1.38,4.57-1.52,6.14-.61s2.54,2.85,2.54,5.62c0,5.54-3.88,12.27-8.68,15-2.4,1.39-4.57,1.52-6.14.61"/><path class="cls-39" d="M564.41,622.71a10.56,10.56,0,0,1,4.78-8.28c2.64-1.53,4.78-.29,4.78,2.76a10.59,10.59,0,0,1-4.78,8.28c-2.64,1.52-4.78.29-4.78-2.76"/><path class="cls-55" d="M560.51,625c0-5.54,3.89-12.27,8.68-15,2.4-1.38,4.57-1.52,6.14-.61l-6.65-3.84c-1.57-.9-3.74-.77-6.14.61-4.79,2.77-8.68,9.5-8.68,15,0,2.77,1,4.72,2.55,5.62l6.64,3.84c-1.57-.91-2.54-2.85-2.54-5.62"/><polygon class="cls-11" points="605.89 581.76 529.15 626.07 484.22 600.13 560.96 555.82 605.89 581.76"/><polygon class="cls-11" points="605.89 589.25 529.15 633.55 529.15 626.07 605.89 581.77 605.89 589.25"/><polygon class="cls-8" points="529.15 633.55 484.22 607.61 484.22 600.13 529.15 626.07 529.15 633.55"/><polygon class="cls-10" points="612.9 533.65 537.48 577.2 488.72 549.05 564.14 505.5 612.9 533.65"/><polygon class="cls-39" points="592.61 521.94 517.18 565.48 509.01 560.76 584.44 517.22 592.61 521.94"/><polygon class="cls-12" points="612.9 579.93 537.48 623.47 537.48 577.2 612.9 533.65 612.9 579.93"/><polygon class="cls-9" points="537.48 623.47 488.72 595.32 488.72 549.04 537.48 577.2 537.48 623.47"/><polygon class="cls-8" points="608.62 574.2 606.6 577.69 606.6 570.04 605.36 570.76 605.36 578.4 603.35 577.24 602.47 578.76 605.98 580.79 609.49 574.71 608.62 574.2"/><polygon class="cls-8" points="599.68 579.36 597.67 582.84 597.67 575.2 596.43 575.92 596.43 583.56 594.41 582.4 593.53 583.92 597.05 585.95 600.56 579.87 599.68 579.36"/><polygon class="cls-18" points="557.13 572.72 541.73 581.61 541.73 579.41 557.13 570.52 557.13 572.72"/><polygon class="cls-18" points="551.59 580.71 541.73 586.4 541.73 584.2 551.59 578.51 551.59 580.71"/><polygon class="cls-18" points="517.18 565.48 517.18 575.67 509.01 570.95 509.01 560.76 517.18 565.48"/><path class="cls-11" d="M527.72,632.73V591.88l-20,11.57V607l-14.55,31.34v25.51l14.95-8.63c0-6.17,4.33-13.66,9.67-16.75Z"/><polygon class="cls-60" points="524.57 620.19 495.41 637.03 509.97 605.69 524.57 597.25 524.57 620.19"/><polygon class="cls-11" points="524.57 631.11 508.8 640.22 508.8 629.3 524.57 620.19 524.57 631.11"/><polygon class="cls-11" points="510.57 605.34 509.97 605.69 508.8 608.2 508.8 629.3 510.57 628.28 510.57 605.34"/><polygon class="cls-11" points="507.68 603.45 465.62 579.16 485.65 567.59 527.72 591.88 507.68 603.45"/><polygon class="cls-8" points="465.62 582.72 507.68 607.01 507.68 603.45 465.62 579.16 465.62 582.72"/><path class="cls-118" d="M491.24,637.25,453,615.15q7.28-15.67,14.56-31.34l38.28,22.11-14.55,31.33"/><path class="cls-11" d="M491.24,637.25l1.89,1.1L507.68,607l-1.89-1.09-14.55,31.33"/><path class="cls-11" d="M451.06,614.06l1.89,1.09q7.28-15.67,14.56-31.34l-1.89-1.09q-7.28,15.67-14.56,31.34"/><polygon class="cls-8" points="493.13 638.35 493.13 663.86 451.06 639.58 451.06 614.06 493.13 638.35"/><path class="cls-8" d="M482,639.77v7.6L462.2,635.94v-7.6c0-1.63,1.14-2.29,2.55-1.47l14.69,8.48a5.64,5.64,0,0,1,2.55,4.42"/><polygon class="cls-39" points="491.24 647.25 483.91 643.02 483.91 639.71 491.24 643.94 491.24 647.25"/><polygon class="cls-11" points="491.24 651.05 487.57 648.94 487.57 647.28 491.24 649.4 491.24 651.05"/><polygon class="cls-11" points="452.95 628.95 456.62 631.07 456.62 629.41 452.95 627.29 452.95 628.95"/><polygon class="cls-39" points="452.95 625.15 460.28 629.38 460.28 626.07 452.95 621.84 452.95 625.15"/></g><g class="cls-119"><rect class="cls-120" x="493.13" y="648.96" width="11.79" height="16.87"/></g><g class="cls-3"><polygon class="cls-18" points="447.66 629.51 493.13 655.76 493.13 665.82 447.66 639.57 447.66 629.51"/><polygon class="cls-121" points="451.06 627.55 447.66 629.51 493.13 655.76 504.92 648.96 503.22 647.98 493.13 653.8 451.06 629.51 451.06 627.55"/><g class="cls-61"><g class="cls-122"><g class="cls-123"><rect class="cls-124" x="452.95" y="583.81" width="51.68" height="41.37"/></g></g></g><g class="cls-4"><g class="cls-125"><g class="cls-126"><rect class="cls-127" x="145.59" y="541.28" width="45.01" height="8.27"/></g></g></g><g class="cls-4"><g class="cls-128"><g class="cls-129"><rect class="cls-130" x="157.36" y="530.38" width="45.01" height="5.26"/></g></g></g><polygon class="cls-12" points="147.58 506.7 131.46 516 130.44 490.63 146.56 481.33 147.58 506.7"/><polygon class="cls-10" points="131.46 516 127.9 513.94 128.87 489.73 129.68 490.2 130.44 490.63 131.46 516"/><polygon class="cls-131" points="128.87 489.73 130.44 490.63 144.99 482.23 144.99 480.42 128.87 489.73"/><path class="cls-55" d="M134.9,490.17a.25.25,0,0,1-.25-.25V485a8.7,8.7,0,0,1,3.92-6.8,2.56,2.56,0,0,1,4.18,2.41v4.92a.25.25,0,0,1-.5,0v-4.92a2.42,2.42,0,0,0-1-2.24,2.46,2.46,0,0,0-2.44.26,8.16,8.16,0,0,0-3.67,6.37v4.92a.25.25,0,0,1-.25.25"/><polygon class="cls-17" points="144.99 480.42 144.99 482.23 146.56 481.33 144.99 480.42"/><path class="cls-132" d="M145.68,446.34c.07-4.53-6.23-2.66-5.51,4.22.9,8.52,1.33,12.58.77,15.57-.78,2.4-2.27,6.15-3.32,10.06-.25.81-1.23,1.53-1.6,2.82a6.76,6.76,0,0,0,.15,3c.4,1.85,1.52.74,1.52.74a.83.83,0,0,0,1.07.17,1.06,1.06,0,0,0,1.34,0c.51-.44.79.86,1.52-.37s.6-3.4-.12-5.48v-.14c1-2.39,3.77-7.84,3.65-7.89,2.32-5.4,0-16.88.53-22.66"/></g><g class="cls-133"><rect class="cls-134" x="153.33" y="521.84" width="12.72" height="15.3" transform="translate(-55.06 19.84) rotate(-6.07)"/></g><g class="cls-3"><path class="cls-55" d="M165.15,525v0a6.93,6.93,0,0,1-.6,2.26s-2.53,5.64-3.39,6.6-4.37,2.35-6,.91a2.85,2.85,0,0,1-.17-.26,1.5,1.5,0,0,0,.31.62c1.68,1.44,5.18.06,6-.9s3.4-6.61,3.4-6.61a7.2,7.2,0,0,0,.6-2.25,3.12,3.12,0,0,0-.15-.39"/><path class="cls-132" d="M156.62,524a32.69,32.69,0,0,1,3.8-1.62,1.75,1.75,0,0,0,.69.52l.13,0a1.43,1.43,0,0,1,1.28,2.24c-1.64,3-5.43,2.85-5,1.45.28-.94-.5-2.06-.89-2.63"/><path class="cls-11" d="M157.43,527.38c-.11-.47-.25-1.48.95-1.65s2.66.4,2.55,1.14c-.25,1.53-3.38,1-3.5.51"/></g><g class="cls-135"><rect class="cls-136" x="130.18" y="480.1" width="34.01" height="48.48" transform="matrix(0.99, -0.13, 0.13, 0.99, -65.04, 23.73)"/></g><g class="cls-3"><path class="cls-39" d="M157.33,529.47a4,4,0,0,1,2.42.15.52.52,0,0,0,.43-1,5,5,0,0,0-3.17-.2.54.54,0,0,0-.34.66.52.52,0,0,0,.66.34"/><path class="cls-39" d="M156.78,531.31a3.82,3.82,0,0,1,2.41.15.53.53,0,0,0,.7-.27.52.52,0,0,0-.27-.69,4.91,4.91,0,0,0-3.16-.19.52.52,0,0,0-.34.66.53.53,0,0,0,.66.34"/></g><g class="cls-137"><rect class="cls-138" x="140.46" y="536.81" width="15.77" height="16.76" transform="translate(-374.69 331.46) rotate(-52.55)"/></g><g class="cls-3"><path class="cls-55" d="M145.62,549c1.33-.1,7.22-2.52,7.22-2.52a7.6,7.6,0,0,0,2-1.2,3.51,3.51,0,0,1-.24.64,7,7,0,0,1-2,1.22s-5.73,2.35-7,2.45-4.15-.38-4.39-2.58c0,0,0-.08,0-.13.6,1.81,3.17,2.22,4.38,2.12"/><path class="cls-132" d="M149.25,538.88a33,33,0,0,1,3.87,1.45,1.73,1.73,0,0,0,.15.85.75.75,0,0,0,.07.12c.54.52,1.11,1.46-.55,2-3.22,1-6-1.15-4.7-1.88.85-.49,1-1.83,1.16-2.52"/><path class="cls-11" d="M147.54,541.83c.24-.31.8-1.17,1.78-.46a2.35,2.35,0,0,1,1.14,2.35c-.12.73-2.24.19-2.32.08s-.6-2-.6-2"/><path class="cls-39" d="M146.57,542.75a4.32,4.32,0,0,1,1.92,1.87.59.59,0,0,0,.77.28.6.6,0,0,0,.28-.78,5.46,5.46,0,0,0-2.52-2.44.58.58,0,0,0-.76.31.58.58,0,0,0,.31.76"/><path class="cls-39" d="M144.78,543.89a4.37,4.37,0,0,1,1.92,1.87.58.58,0,0,0,.77.28.59.59,0,0,0,.28-.78,5.5,5.5,0,0,0-2.52-2.44.59.59,0,0,0-.76.31.58.58,0,0,0,.31.76"/></g><g class="cls-139"><rect class="cls-140" x="124.13" y="497.9" width="62.9" height="27.94" transform="translate(-378.32 546.08) rotate(-76.76)"/></g><g class="cls-141"><rect class="cls-142" x="137.78" y="440.59" width="25.48" height="55.38"/></g><g class="cls-3"><polygon class="cls-12" points="172.32 514.03 156.2 523.34 155.18 497.97 171.29 488.67 172.32 514.03"/><polygon class="cls-10" points="156.2 523.34 152.64 521.28 153.61 497.07 154.42 497.53 155.18 497.97 156.2 523.34"/><polygon class="cls-131" points="153.61 497.07 155.18 497.97 169.73 489.57 169.73 487.76 153.61 497.07"/><polygon class="cls-18" points="171.31 513.05 168.18 514.85 168.15 513.97 171.27 512.17 171.31 513.05"/><polygon class="cls-18" points="171.24 511.29 169.76 512.14 169.73 511.26 171.2 510.41 171.24 511.29"/><path class="cls-55" d="M159.64,497.5a.25.25,0,0,1-.25-.25v-4.91a8.7,8.7,0,0,1,3.92-6.8,2.56,2.56,0,0,1,4.18,2.41v4.92a.26.26,0,0,1-.25.25.25.25,0,0,1-.25-.25V488a2.08,2.08,0,0,0-3.43-2,8.16,8.16,0,0,0-3.67,6.37v4.91a.25.25,0,0,1-.25.25"/><polygon class="cls-17" points="169.73 487.76 169.73 489.57 171.29 488.67 169.73 487.76"/><path class="cls-132" d="M168.25,467.66c-.17-2.23-2.9-19-5.1-22.81-.94-1.64-2.92-2.5-4-3-2.09.14-4.24,3-3.54,6.61s2.86,4.75,3,4.8c1.9,4,3.58,12.5,4.45,15.42.22,2-.57,10.66-.79,13.21-.1,1.35-2.17,3.12-1.52,6.18.39,1.85,1.51.74,1.51.74a.84.84,0,0,0,1.08.17,1,1,0,0,0,1.33,0c.51-.44.8.86,1.53-.37s.59-3.4-.12-5.48c-.25-5.65,2.49-11.53,2.18-15.48"/><path class="cls-132" d="M152.84,432.92c-.1-1.77-6.15,1.75-6,4.08.11,1.9.36,3.82-.35,4.06-1.75,1.27,1.52,3.36,10.66,0-1.87-.38-4-2.44-4.29-8.17"/><path class="cls-132" d="M154.3,430.47l-1.82-4.56H140.93v6.95c0,3.84,2.59,6.95,5.78,6.95s5.59-2.93,5.74-6.61l.81,0Z"/><path class="cls-143" d="M151.45,436.76a5.56,5.56,0,0,1-4.51,3,1.6,1.6,0,0,1-.35,1.18,4.75,4.75,0,0,0,1-.11,5.56,5.56,0,0,0,3.88-4.1"/><path class="cls-11" d="M147.46,421.07h-.1c-6.3.16-6.77,4.86-6.43,5.64,2,.72,3.26-.64,4.51-.53.61.05,3.07.38,4.09,1.68s.74,3.64,1.77,3.59c.45,0,.59-1.52,1.25-1.56a1.12,1.12,0,0,1,1.06,1.35c-.08,1.15-1.18,1.86-1,2.42.27.92,2.58-.74,2.53-4s-2.22-8.79-7.66-8.57"/><path class="cls-11" d="M149,421.17c7,1.62,6.46,6.94,9.06,8.67,1.54,1,5-.92,7,2.58,2.32,4-1.44,5.49,1,7.19s4.36,6.91.26,10.1-9.25.39-8.67-4.29c.42-3.36-.58-5.1-3.41-4-2.12.81-2.93-.86-2-3-4.71.47.22-8.51-6.88-12.22.26-1.83,3.57-5,3.57-5"/><g class="cls-4"><g class="cls-144"><g class="cls-145"><rect class="cls-146" x="343.44" y="567.26" width="43.14" height="7.93"/></g></g></g><g class="cls-4"><g class="cls-147"><g class="cls-147"><rect class="cls-148" x="323.58" y="555.82" width="43.14" height="7.93"/></g></g></g></g><g class="cls-149"><rect class="cls-150" x="319.02" y="552.77" width="16.99" height="11.55"/></g><g class="cls-3"><path class="cls-55" d="M319,560.74c.08,1.28,4.2,3,5.5,2.24l8.63-5.06a7.51,7.51,0,0,0,1.21-.89c-.08.18-.14.34-.24.53a1.62,1.62,0,0,1-.1.18,2.32,2.32,0,0,1-.87.77l-8.63,5.06c-1.23.7-5-.78-5.46-2a1.41,1.41,0,0,1,0-.25,5.23,5.23,0,0,1,0-.56"/><path class="cls-39" d="M320.63,554.07a36.26,36.26,0,0,1,4.59.91,2.08,2.08,0,0,0,.32.93l.1.12c.71.49,1.42,1.27-.25,2.32a2.34,2.34,0,0,1-3-.21,2.71,2.71,0,0,0-1-1.11,2.41,2.41,0,0,0-.93-.39.78.78,0,0,0,0-.09s-.26-2.48.17-2.48"/><path class="cls-8" d="M320.56,493.17l17.55.31c-1.45,11.73-4.37,22.37-6.32,33.73-2.1,11-4.46,18.78-6.52,28-.75,1.71-4.2,1.06-4.9-.59-.54-8.45-1.17-18.75,1.34-28.51-.42-10.52-1.39-22.29-1.15-32.91"/></g><g class="cls-151"><rect class="cls-152" x="338.68" y="564.21" width="16.99" height="11.55"/></g><g class="cls-3"><path class="cls-55" d="M338.71,572.19c.07,1.28,4.19,3,5.49,2.23l8.63-5a9,9,0,0,0,1.22-.89c-.08.17-.15.34-.25.52a1.62,1.62,0,0,1-.1.18,2.24,2.24,0,0,1-.87.77L344.2,575c-1.22.71-5-.77-5.46-2a1.29,1.29,0,0,1,0-.25,3.35,3.35,0,0,1,0-.55"/><path class="cls-39" d="M340.29,565.52a36.26,36.26,0,0,1,4.59.91,2.06,2.06,0,0,0,.32.92.64.64,0,0,1,.1.13c.71.49,1.43,1.26-.25,2.31a2.3,2.3,0,0,1-3-.21,2.79,2.79,0,0,0-1-1.1,2.48,2.48,0,0,0-.93-.4s0-.08,0-.08-.26-2.48.17-2.48"/></g><g class="cls-153"><rect class="cls-154" x="319.57" y="495.54" width="28.47" height="72.79"/></g><g class="cls-155"><rect class="cls-156" x="300.7" y="463.27" width="41.8" height="26.59" transform="translate(-230.69 636.32) rotate(-72.12)"/></g><g class="cls-157"><rect class="cls-158" x="319.38" y="455.1" width="29.36" height="56.4"/></g><g class="cls-3"><path class="cls-132" d="M330,456.58c2.48-1.79,2.12-3,1.74-5.4A12.24,12.24,0,0,1,331,447c0-5.43,3.45-10.12,7.69-9.83,8.54.58,7,5.08,7,10.51,0,5-2.29,8.49-6.1,9.07,0,.83.22,1.3,1.26,2.34-2.79,1.67-6.87.89-8.47.16s-3.57-1.44-2.41-2.64"/><path class="cls-11" d="M341.87,434.27c-.25-.67-1.57-1-5.86,1l-1.1.52c-7.9,4.07-5.3,13.32-3.92,15.73a5,5,0,0,1,.84,2.91c3.19-.34,4.33,1.39,6.26-.54,1.38-1.39,3.47-3,3.8-3.7a2.51,2.51,0,0,0,.2-1.57c-.3-4.5,2-1.89,2-.85.82-.47.64-2.28.45-4.29,6.56-5.62,2.61-8.92-2.64-9.18"/><path class="cls-132" d="M347.74,509.7a2.83,2.83,0,0,1-4.14.14c-1.35-1.43-.57-3-1.31-3.48-2-1.3-2.49-2.53-2.15-3.75,1.62,1,3.29,2.68,4.7,1.67s3.25-2.38,3.35-3.81c2.11.49,2.22,5,1.12,6.88a19.33,19.33,0,0,1-1.57,2.35"/></g><g class="cls-159"><rect class="cls-160" x="323.45" y="471.24" width="49.31" height="32.91" transform="translate(-227.46 654.27) rotate(-70.62)"/></g></g></g></g></g></svg>