<svg xmlns="http://www.w3.org/2000/svg" xmlns:xlink="http://www.w3.org/1999/xlink" viewBox="0 0 62.37 19.16"><defs><style>.cls-1{fill:none;}.cls-2{clip-path:url(#clip-path);}.cls-3{fill:#fff;fill-rule:evenodd;}</style><clipPath id="clip-path" transform="translate(0 0)"><rect class="cls-1" width="62.37" height="19.16"/></clipPath></defs><title>Ресурс 1</title><g id="Слой_2" data-name="Слой 2"><g id="Слой_1-2" data-name="Слой 1"><g class="cls-2"><path class="cls-3" d="M56.88,5.75c-2.2-.59-3.92-1-5.62-1.54a.83.83,0,0,1-.4-.68.86.86,0,0,1,.45-.66A6.3,6.3,0,0,1,53,2.55a17.6,17.6,0,0,0,4.41-.2c.26-.59.46-1.14.74-1.64A1.19,1.19,0,0,1,60.32.64a26.35,26.35,0,0,1,1.6,3.13c.92,2.13.38,2.8-1.18,3.6C59.43,8,58.2,8.86,56.88,9.5c-.29.14-.86-.11-1.19-.33A.84.84,0,0,1,55.44,8c.38-.61.77-1.21,1.44-2.25" transform="translate(0 0)"/><path class="cls-3" d="M9.09,13.76c0,.28.09.49,0,.56a10.46,10.46,0,0,1-2.22,2.1c-1.94,1-4,1.86-6,2.73-.15.06-.55-.2-.7-.4A.94.94,0,0,1,.05,18a2.45,2.45,0,0,1,.86-1C3.26,15.72,5.62,14.49,8,13.34c.25-.12.74.28,1.07.42" transform="translate(0 0)"/><path class="cls-3" d="M35.91,4.33c-1.12-.07-2-.09-2.88-.2a.81.81,0,0,1-.49-.58,1,1,0,0,1,.22-.8A5.82,5.82,0,0,1,38.23,2c.36.1.63.58.87.93s0,1.06-.37,1.1l-2.82.26" transform="translate(0 0)"/><path class="cls-3" d="M22.5,7.66c-.57-.91-.63-1.66-.11-1.88,1.88-.8,3.79-1.54,5.69-2.29a.47.47,0,0,1,.42.06,3.32,3.32,0,0,1,.82.9c.08.17-.12.54-.29.74a1.65,1.65,0,0,1-.72.5c-1.93.67-3.88,1.32-5.81,2" transform="translate(0 0)"/><path class="cls-3" d="M12.07,12.37c-.32-.23-.51-.3-.54-.41s-.16-.62,0-.76A10.79,10.79,0,0,1,17.18,8c.29-.06.73.37,1,.65A.94.94,0,0,1,18,9.85c-2,.84-4,1.8-5.9,2.52" transform="translate(0 0)"/><path class="cls-3" d="M45.1,3.64a16.68,16.68,0,0,1-1.93-.39.91.91,0,0,1-.45-.63,1.16,1.16,0,0,1,.23-.8,1.81,1.81,0,0,1,.71-.49,4.11,4.11,0,0,1,3.82.3,1,1,0,0,1,.35.75c0,.25-.19.65-.38.71-.82.25-1.68.4-2.35.55" transform="translate(0 0)"/></g></g></g></svg>