<svg xmlns="http://www.w3.org/2000/svg" xmlns:xlink="http://www.w3.org/1999/xlink" viewBox="0 0 2243.67 2619"><defs><style>.cls-1{fill:none;}.cls-2{clip-path:url(#clip-path);}.cls-3{fill:#d0d0d0;}</style><clipPath id="clip-path"><rect class="cls-1" width="2243.67" height="2619"/></clipPath></defs><title></title><g id="Слой_2" data-name="Слой 2"><g id="Слой_1-2" data-name="Слой 1"><g class="cls-2"><path class="cls-3" d="M111.71,2619a111.68,111.68,0,0,1-76.09-193.46l1199.9-1116L35.62,193.47A111.69,111.69,0,0,1,187.75,29.91L1475.57,1227.72a111.69,111.69,0,0,1,0,163.56L187.75,2589.09a111.29,111.29,0,0,1-76,29.91"/><path class="cls-3" d="M844.19,2619a111.68,111.68,0,0,1-76.09-193.46L1968,1309.5,768.1,193.47A111.69,111.69,0,1,1,920.23,29.91L2208.05,1227.72a111.69,111.69,0,0,1,0,163.56L920.23,2589.09a111.31,111.31,0,0,1-76,29.91"/></g></g></g></svg>