<svg
   xmlns:dc="http://purl.org/dc/elements/1.1/"
   xmlns:cc="http://creativecommons.org/ns#"
   xmlns:rdf="http://www.w3.org/1999/02/22-rdf-syntax-ns#"
   xmlns:svg="http://www.w3.org/2000/svg"
   xmlns="http://www.w3.org/2000/svg"
   xmlns:sodipodi="http://sodipodi.sourceforge.net/DTD/sodipodi-0.dtd"
   xmlns:inkscape="http://www.inkscape.org/namespaces/inkscape"
   viewBox="0 -256 1792 1792"
   id="svg3013"
   version="1.1"
   inkscape:version="0.48.3.1 r9886"
   width="100%"
   height="100%"
   sodipodi:docname="angle_right_font_awesome.svg">
  <g transform="matrix(1,0,0,-1,577.08475,1209.4915)">
    <path d="m 595,576 q 0,-13 -10,-23 L 119,87 Q 109,77 96,77 83,77 73,87 l -50,50 q -10,10 -10,23 0,13 10,23 L 416,576 23,969 q -10,10 -10,23 0,13 10,23 l 50,50 q 10,10 23,10 13,0 23,-10 L 585,599 q 10,-10 10,-23 z" fill="#fff"/>
  </g>
</svg>
