<svg xmlns="http://www.w3.org/2000/svg" width="52" height="55" viewBox="0 0 52 55">
  <g id="Vector_Smart_Object" data-name="Vector Smart Object" transform="translate(-509 -785)">
    <g id="Vector_Smart_Object-2" data-name="Vector Smart Object" transform="translate(404.419 774.386)">
      <g id="NewGroupe1">
        <g id="NewGroup2-10">
          <g id="Сгруппировать_22" data-name="Сгруппировать 22">
            <path id="Контур_841" data-name="Контур 841" d="M144.758,37.072a9.7,9.7,0,0,1-4.584-1.148,9.581,9.581,0,0,1-5.063-8.44c0-.11,0-.219.006-.327v-.007a9.646,9.646,0,1,1,9.641,9.923ZM127.381,63.448a20.469,20.469,0,0,1-13.916-35.621,1.032,1.032,0,0,0,.1-.062,1.081,1.081,0,0,0,.235-.233,20.719,20.719,0,0,1,19.87-4.119,11.6,11.6,0,0,0-.587,2.236,18.193,18.193,0,1,0,3.679,32.923,1.085,1.085,0,1,0-1.116-1.86,16.13,16.13,0,0,1-7.173,2.224v-.719a1.088,1.088,0,0,0-2.176,0v.718a16.1,16.1,0,0,1-15-14.909h.721a1.083,1.083,0,1,0,0-2.166H111.3a16.1,16.1,0,0,1,15-14.906v.715a1.088,1.088,0,0,0,2.176,0v-.715a16.113,16.113,0,0,1,4.473.942,11.78,11.78,0,0,0,10.1,11.218,15.991,15.991,0,0,1,.43,2.747h-.724a1.083,1.083,0,1,0,0,2.166h.724a15.958,15.958,0,0,1-1.9,6.548,1.087,1.087,0,0,0,1.912,1.035A18.106,18.106,0,0,0,145.3,39.226a11.845,11.845,0,0,0,2.306-.332,20.495,20.495,0,0,1-20.221,24.554ZM113.9,21.387l1.619,2.2a22.855,22.855,0,0,0-2.426,1.7L111.489,23.1l2.412-1.715Zm15-3.492v2.431q-.757-.05-1.521-.05c-.486,0-.968.017-1.447.047V17.894Zm-5.1-5.114,7.235,0,0,2.943h0l-7.235,0,.005-2.944Zm32.779,14.7a11.834,11.834,0,0,0-21.963-6.04,22.83,22.83,0,0,0-3.54-.87V17.892a2.177,2.177,0,0,0,2.134-2.168v-2.94a2.178,2.178,0,0,0-2.181-2.17H123.8a2.178,2.178,0,0,0-2.181,2.17v2.94a2.177,2.177,0,0,0,2.137,2.168v2.671a22.707,22.707,0,0,0-6.312,1.98l-2.424-3.3a1.091,1.091,0,0,0-1.51-.242l-4.183,2.974a1.08,1.08,0,0,0-.246,1.52l2.376,3.24a22.764,22.764,0,1,0,38.215,11.438,11.768,11.768,0,0,0,6.907-10.69Z" fill="#636363"/>
            <path id="Контур_842" data-name="Контур 842" d="M147.143,26.792a7.992,7.992,0,0,0-1.13-.414,8.473,8.473,0,0,0-1.127-.256,2.1,2.1,0,0,1-.863-.307.689.689,0,0,1-.352-.6c0-1.187,1.754-1.044,2.529-.4,1.142.956,2.419-.791,1.1-1.778l-.153-.134a3.371,3.371,0,0,0-.548-.307,4.076,4.076,0,0,0-.873-.289V20.921a1.007,1.007,0,0,0-2.015,0v1.373a2.917,2.917,0,0,0-1.779,1.05,2.885,2.885,0,0,0-.652,1.836,2.813,2.813,0,0,0,.481,1.684,2.64,2.64,0,0,0,1.16.934,9.865,9.865,0,0,0,1.369.432,7.351,7.351,0,0,1,1.163.365c.319.137.478.329.478.578q0,1.037-1.265,1.038a1.764,1.764,0,0,1-1.366-.481c-.132-.143-.245-.28-.352-.392-.894-.932-2.425.362-1.5,1.571l.223.286a3.3,3.3,0,0,0,.787.63,3.939,3.939,0,0,0,1.231.5v1.6a1.009,1.009,0,1,0,2.015-.088l.018-1.516a3.711,3.711,0,0,0,1.864-1.053,3.357,3.357,0,0,0,.42-3.629,2,2,0,0,0-.863-.843Z" fill="#636363"/>
            <path id="Контур_843" data-name="Контур 843" d="M127.782,45.44a2.9,2.9,0,1,1,2.914-2.9,2.908,2.908,0,0,1-2.914,2.9Zm0-7.957a5.084,5.084,0,0,0-3.256,1.175l-4.032-3.12a1.091,1.091,0,0,0-1.527.191,1.08,1.08,0,0,0,.191,1.52l4.029,3.118a5.008,5.008,0,0,0-.5,2.179,5.09,5.09,0,1,0,5.09-5.061Z" fill="#636363"/>
            <path id="Контур_844" data-name="Контур 844" d="M139.8,55.877a1.084,1.084,0,0,1-.849-1.76l.012-.015a1.091,1.091,0,0,1,1.529-.169,1.08,1.08,0,0,1,.17,1.523l-.012.015a1.088,1.088,0,0,1-.85.407Z" fill="#636363"/>
          </g>
        </g>
      </g>
    </g>
    <path id="Color_Overlay" data-name="Color Overlay" d="M509,817.33a22.536,22.536,0,0,1,6.879-16.208l-2.376-3.24a1.079,1.079,0,0,1,.246-1.52l4.183-2.974a1.091,1.091,0,0,1,1.51.242l2.424,3.3a22.707,22.707,0,0,1,6.312-1.98v-2.671a2.176,2.176,0,0,1-2.138-2.167v-2.94A2.178,2.178,0,0,1,528.221,785h7.229a2.178,2.178,0,0,1,2.181,2.171v2.94a2.176,2.176,0,0,1-2.134,2.167v2.681a22.689,22.689,0,0,1,3.541.87,11.8,11.8,0,1,1,15.056,16.729,22.682,22.682,0,0,1,.51,4.771,22.454,22.454,0,0,1-6.68,16.031A22.829,22.829,0,0,1,509,817.33Zm9.215-15.412a1.067,1.067,0,0,1-.235.232.84.84,0,0,1-.1.062,20.588,20.588,0,1,0,34.138,11.067,11.792,11.792,0,0,1-2.306.332A18.109,18.109,0,0,1,547.9,826a1.087,1.087,0,0,1-1.913-1.035,15.951,15.951,0,0,0,1.9-6.548h-.724a1.083,1.083,0,1,1,0-2.166h.724a15.958,15.958,0,0,0-.43-2.747,11.783,11.783,0,0,1-10.1-11.219,16.168,16.168,0,0,0-4.473-.941v.716a1.088,1.088,0,0,1-2.176,0v-.715a16.1,16.1,0,0,0-15,14.906h.721a1.083,1.083,0,1,1,0,2.166h-.721a16.1,16.1,0,0,0,15,14.909V832.6a1.088,1.088,0,0,1,2.176,0v.719a16.126,16.126,0,0,0,7.172-2.224,1.084,1.084,0,1,1,1.116,1.859,18.2,18.2,0,1,1-3.679-32.923,11.548,11.548,0,0,1,.588-2.236,20.719,20.719,0,0,0-19.87,4.118Zm21.321-.383v.006c0,.109-.006.218-.006.328a9.581,9.581,0,0,0,5.063,8.44,9.6,9.6,0,1,0,8.7-17.113,9.663,9.663,0,0,0-13.761,8.339Zm-23.628-4.047,1.606,2.189a22.927,22.927,0,0,1,2.426-1.7l-1.619-2.2Zm17.413-2.776v-2.431h-2.968v2.428c.479-.031.96-.048,1.447-.048Q532.564,794.661,533.321,794.712Zm-5.106-4.6,7.234,0h0l0-2.943-7.234,0Zm15.324,39.914a1.08,1.08,0,0,1-.17-1.523l.013-.015a1.086,1.086,0,0,1,1.7,1.354l-.013.015a1.09,1.09,0,0,1-1.529.169Zm-16.429-13.1a5.007,5.007,0,0,1,.5-2.178l-4.028-3.118a1.085,1.085,0,1,1,1.335-1.711l4.032,3.12a5.053,5.053,0,1,1-1.834,3.886Zm2.176,0a2.914,2.914,0,1,0,2.913-2.9A2.907,2.907,0,0,0,529.287,816.931Zm18.821-8.624v-1.595a3.913,3.913,0,0,1-1.231-.5,3.305,3.305,0,0,1-.787-.63l-.223-.285c-.927-1.209.6-2.5,1.5-1.57.107.112.22.249.352.392a1.764,1.764,0,0,0,1.366.481c.841,0,1.265-.346,1.265-1.038q0-.374-.478-.579a7.463,7.463,0,0,0-1.164-.365,9.772,9.772,0,0,1-1.369-.432,2.643,2.643,0,0,1-1.16-.934,2.81,2.81,0,0,1-.481-1.683,2.889,2.889,0,0,1,.652-1.836,2.919,2.919,0,0,1,1.779-1.05v-1.372a1.008,1.008,0,0,1,2.015,0v1.385a4.1,4.1,0,0,1,.872.289,3.311,3.311,0,0,1,.548.308l.153.134c1.323.985.046,2.733-1.1,1.777-.774-.645-2.529-.788-2.529.4a.689.689,0,0,0,.353.6,2.1,2.1,0,0,0,.863.308,8.393,8.393,0,0,1,1.127.256,7.987,7.987,0,0,1,1.13.414,2.008,2.008,0,0,1,.864.843,3.354,3.354,0,0,1-.42,3.628,3.71,3.71,0,0,1-1.864,1.054l-.019,1.516a1.009,1.009,0,1,1-2.014.088Z" fill="#fd6427"/>
  </g>
</svg>
