<svg xmlns="http://www.w3.org/2000/svg" width="118.5" height="118.5" viewBox="0 0 118.5 118.5">
  <g id="Сгруппировать_170" data-name="Сгруппировать 170" transform="translate(-1285 -1380)">
    <g id="Ellipse_1" data-name="Ellipse 1" transform="translate(1285 1380)" fill="rgba(255,255,255,0)" stroke="#000" stroke-linejoin="round" stroke-width="3">
      <circle cx="59.25" cy="59.25" r="59.25" stroke="none"/>
      <circle cx="59.25" cy="59.25" r="57.75" fill="none"/>
    </g>
    <path id="Контур_865" data-name="Контур 865" d="M-20.614-78.8a32.341,32.341,0,0,1,3.72-3.171,28.563,28.563,0,0,1,4.544-2.714,26.8,26.8,0,0,1,5.4-1.891,27.189,27.189,0,0,1,6.343-.7,25.011,25.011,0,0,1,8.02,1.281,20.272,20.272,0,0,1,6.648,3.659,17.489,17.489,0,0,1,4.513,5.824A17.4,17.4,0,0,1,20.248-68.8a20.255,20.255,0,0,1-1.433,7.99,22.236,22.236,0,0,1-3.629,5.885,30.609,30.609,0,0,1-4.757,4.452q-2.562,1.921-4.818,3.6A26.6,26.6,0,0,0,1.8-43.485,6.043,6.043,0,0,0,.122-39.7l-.671,10H-4.513l-.366-10.429A6.94,6.94,0,0,1-3.6-44.644,19.27,19.27,0,0,1,0-48.364q2.2-1.769,4.757-3.6A34.166,34.166,0,0,0,9.545-56.11a21.452,21.452,0,0,0,3.72-5.306,15.8,15.8,0,0,0,1.494-7.136,13.111,13.111,0,0,0-1.281-5.885A13.119,13.119,0,0,0,10-78.828,15.618,15.618,0,0,0,4.94-81.573a18.96,18.96,0,0,0-5.977-.945A20.586,20.586,0,0,0-8.02-81.451a24.139,24.139,0,0,0-4.971,2.379,24.546,24.546,0,0,0-3.171,2.379q-1.159,1.067-1.586,1.067a1.442,1.442,0,0,1-1.342-.732ZM-8.295-4.7a5.71,5.71,0,0,1,.427-2.2,5.447,5.447,0,0,1,1.189-1.8A5.974,5.974,0,0,1-4.91-9.911a5.317,5.317,0,0,1,2.226-.457,5.38,5.38,0,0,1,2.2.457,5.863,5.863,0,0,1,1.8,1.22,5.863,5.863,0,0,1,1.22,1.8,5.38,5.38,0,0,1,.457,2.2A5.317,5.317,0,0,1,2.531-2.47,5.974,5.974,0,0,1,1.311-.7,5.447,5.447,0,0,1-.488.488a5.71,5.71,0,0,1-2.2.427A5.427,5.427,0,0,1-6.678-.7,5.427,5.427,0,0,1-8.295-4.7Z" transform="translate(1344.614 1482.276)" fill="#f79420"/>
  </g>
</svg>
