<svg xmlns="http://www.w3.org/2000/svg" width="119" height="119" viewBox="0 0 119 119">
  <g id="Сгруппировать_25" data-name="Сгруппировать 25" transform="translate(-297.5 -866.469)">
    <g id="Сгруппировать_8" data-name="Сгруппировать 8">
      <path id="Контур_793" data-name="Контур 793" d="M366.3,952h-3.719V925.969a1.859,1.859,0,0,1,1.859-1.859h2.19L357,908.978l-9.628,15.132h2.19a1.859,1.859,0,0,1,1.859,1.859v11.156H347.7v-9.3h-3.719a1.86,1.86,0,0,1-1.569-2.858l13.016-20.453a1.935,1.935,0,0,1,3.139,0l13.016,20.453a1.861,1.861,0,0,1-1.569,2.858H366.3Z" fill="#f79420"/>
    </g>
    <g id="Сгруппировать_9" data-name="Сгруппировать 9">
      <rect id="Прямоугольник_2" data-name="Прямоугольник 2" width="9.297" height="3.719" transform="translate(355.141 924.109)" fill="#f79420"/>
    </g>
    <g id="Сгруппировать_10" data-name="Сгруппировать 10">
      <rect id="Прямоугольник_3" data-name="Прямоугольник 3" width="9.297" height="3.719" transform="translate(370.016 972.453)" fill="#222829"/>
    </g>
    <g id="Сгруппировать_11" data-name="Сгруппировать 11">
      <path id="Контур_794" data-name="Контур 794" d="M408.534,955.728l-3.219-1.863a55.781,55.781,0,1,0-96.634,0l-3.219,1.863a59.5,59.5,0,1,1,103.071,0Z" fill="#222829"/>
    </g>
    <g id="Сгруппировать_12" data-name="Сгруппировать 12">
      <path id="Контур_795" data-name="Контур 795" d="M392.43,946.427l-3.219-1.863a37.279,37.279,0,0,0,2.852-31.009l3.5-1.242a41,41,0,0,1-3.139,34.114Z" fill="#f79420"/>
    </g>
    <g id="Сгруппировать_13" data-name="Сгруппировать 13">
      <path id="Контур_796" data-name="Контур 796" d="M389.21,907.369a36.992,36.992,0,0,0-26.66-18.175l.55-3.68a40.7,40.7,0,0,1,29.328,19.992Z" fill="#f79420"/>
    </g>
    <g id="Сгруппировать_14" data-name="Сгруппировать 14">
      <path id="Контур_797" data-name="Контур 797" d="M322.635,911.737l-3.436-1.424a40.8,40.8,0,0,1,37.8-25.25v3.719A37.09,37.09,0,0,0,322.635,911.737Z" fill="#f79420"/>
    </g>
    <g id="Сгруппировать_15" data-name="Сгруппировать 15">
      <path id="Контур_798" data-name="Контур 798" d="M321.57,946.427a40.92,40.92,0,0,1-5.476-20.459h3.719a37.171,37.171,0,0,0,4.976,18.6Z" fill="#f79420"/>
    </g>
    <g id="Сгруппировать_16" data-name="Сгруппировать 16">
      <rect id="Прямоугольник_4" data-name="Прямоугольник 4" width="35.328" height="3.719" transform="translate(299.359 924.109)" fill="#222829"/>
    </g>
    <g id="Сгруппировать_17" data-name="Сгруппировать 17">
      <rect id="Прямоугольник_5" data-name="Прямоугольник 5" width="37.36" height="3.719" transform="translate(375.244 913.287) rotate(-29.995)" fill="#222829"/>
    </g>
    <g id="Сгруппировать_18" data-name="Сгруппировать 18">
      <rect id="Прямоугольник_6" data-name="Прямоугольник 6" width="3.719" height="27.891" transform="translate(355.141 868.328)" fill="#222829"/>
    </g>
    <g id="Сгруппировать_19" data-name="Сгруппировать 19">
      <rect id="Прямоугольник_7" data-name="Прямоугольник 7" width="3.719" height="3.719" transform="translate(316.094 916.672)" fill="#f79420"/>
    </g>
    <g id="Сгруппировать_20" data-name="Сгруппировать 20">
      <rect id="Прямоугольник_8" data-name="Прямоугольник 8" width="3.719" height="3.719" transform="translate(323.531 916.672)" fill="#f79420"/>
    </g>
    <g id="Сгруппировать_21" data-name="Сгруппировать 21">
      <rect id="Прямоугольник_9" data-name="Прямоугольник 9" width="3.719" height="3.719" transform="translate(330.969 916.672)" fill="#f79420"/>
    </g>
    <g id="Сгруппировать_22" data-name="Сгруппировать 22">
      <rect id="Прямоугольник_10" data-name="Прямоугольник 10" width="9.297" height="3.719" transform="translate(340.266 957.578)" fill="#222829"/>
    </g>
    <g id="Сгруппировать_23" data-name="Сгруппировать 23">
      <path id="Контур_799" data-name="Контур 799" d="M416.5,985.469H379.313a1.859,1.859,0,0,1-1.859-1.859v-9.3a1.859,1.859,0,0,1,1.859-1.859h2.19l-9.628-15.132-9.628,15.132h2.19a1.859,1.859,0,0,1,1.859,1.859v11.156h-3.719v-9.3h-3.719a1.86,1.86,0,0,1-1.569-2.858l13.016-20.453a1.935,1.935,0,0,1,3.139,0l13.016,20.453a1.861,1.861,0,0,1-1.569,2.858h-3.719v5.578H416.5Z" fill="#222829"/>
    </g>
    <g id="Сгруппировать_24" data-name="Сгруппировать 24">
      <path id="Контур_800" data-name="Контур 800" d="M351.422,985.469H347.7V959.438a1.859,1.859,0,0,1,1.859-1.859h2.19l-9.628-15.132L332.5,957.578h2.19a1.859,1.859,0,0,1,1.859,1.859v24.172a1.859,1.859,0,0,1-1.859,1.859H297.5V981.75h35.328V961.3h-3.719a1.86,1.86,0,0,1-1.569-2.858l13.016-20.453a1.935,1.935,0,0,1,3.139,0l13.016,20.453a1.861,1.861,0,0,1-1.569,2.858h-3.719Z" fill="#222829"/>
    </g>
  </g>
</svg>
