<svg xmlns="http://www.w3.org/2000/svg" xmlns:xlink="http://www.w3.org/1999/xlink" width="229" height="131" viewBox="0 0 229 131">
  <defs>
    <linearGradient id="linear-gradient" x1="0.5" y1="0.967" x2="0.5" y2="0.049" gradientUnits="objectBoundingBox">
      <stop offset="0" stop-color="#fff"/>
      <stop offset="1"/>
    </linearGradient>
    <linearGradient id="linear-gradient-2" y1="0.5" x2="1" y2="0.5" gradientUnits="objectBoundingBox">
      <stop offset="0" stop-color="#7b7e81"/>
      <stop offset="1" stop-color="gray"/>
    </linearGradient>
    <linearGradient id="linear-gradient-3" x1="0.5" y1="1" x2="0.5" gradientUnits="objectBoundingBox">
      <stop offset="0" stop-color="#39393b"/>
      <stop offset="0.542" stop-color="#7b7b7d"/>
      <stop offset="0.99" stop-color="#c4c6c8"/>
    </linearGradient>
    <linearGradient id="linear-gradient-4" y1="0.5" x2="1" y2="0.5" gradientUnits="objectBoundingBox">
      <stop offset="0" stop-color="#737373"/>
      <stop offset="0.001" stop-color="#7f7f7f"/>
      <stop offset="0.003" stop-color="#9f9fa1"/>
      <stop offset="0.005" stop-color="#b9b9bc"/>
      <stop offset="0.008" stop-color="#cecdd1"/>
      <stop offset="0.011" stop-color="#dcdbe0"/>
      <stop offset="0.014" stop-color="#e5e4e9"/>
      <stop offset="0.019" stop-color="#e8e7ec"/>
      <stop offset="0.021" stop-color="#d2d2d6"/>
      <stop offset="0.024" stop-color="#bcbdc0"/>
      <stop offset="0.027" stop-color="#acadb0"/>
      <stop offset="0.031" stop-color="#a2a4a6"/>
      <stop offset="0.036" stop-color="#a0a2a4"/>
      <stop offset="0.044" stop-color="#aeb0b2"/>
      <stop offset="0.057" stop-color="#c4c5c7"/>
      <stop offset="0.074" stop-color="#d5d6d8"/>
      <stop offset="0.094" stop-color="#e1e1e3"/>
      <stop offset="0.122" stop-color="#e8e8ea"/>
      <stop offset="0.2" stop-color="#eaeaec"/>
      <stop offset="0.866" stop-color="#eaeaec"/>
      <stop offset="0.887" stop-color="#e4e4e6"/>
      <stop offset="0.914" stop-color="#d3d3d5"/>
      <stop offset="0.945" stop-color="#b7b8ba"/>
      <stop offset="0.966" stop-color="#a0a2a4"/>
      <stop offset="0.97" stop-color="#b0b1b4"/>
      <stop offset="0.978" stop-color="#dbdbdf"/>
      <stop offset="0.98" stop-color="#e8e7ec"/>
      <stop offset="0.984" stop-color="#e4e3e8"/>
      <stop offset="0.987" stop-color="#dad9dd"/>
      <stop offset="0.991" stop-color="#c8c7cb"/>
      <stop offset="0.994" stop-color="#afafb1"/>
      <stop offset="0.998" stop-color="#909091"/>
      <stop offset="1" stop-color="#737373"/>
    </linearGradient>
    <linearGradient id="linear-gradient-5" y1="0.5" x2="1" y2="0.5" gradientUnits="objectBoundingBox">
      <stop offset="0" stop-color="#737373"/>
      <stop offset="0.013" stop-color="#868787"/>
      <stop offset="0.042" stop-color="#adaeaf"/>
      <stop offset="0.068" stop-color="#c9cacc"/>
      <stop offset="0.09" stop-color="#d9dbdd"/>
      <stop offset="0.107" stop-color="#e0e2e4"/>
      <stop offset="0.114" stop-color="#e0e2e4"/>
      <stop offset="0.497" stop-color="#e0e2e4"/>
      <stop offset="0.886" stop-color="#e0e2e4"/>
      <stop offset="0.898" stop-color="#e0e2e4"/>
      <stop offset="0.916" stop-color="#dbdddf"/>
      <stop offset="0.936" stop-color="#cfd0d2"/>
      <stop offset="0.956" stop-color="#babbbc"/>
      <stop offset="0.977" stop-color="#9d9d9e"/>
      <stop offset="0.998" stop-color="#777"/>
      <stop offset="1" stop-color="#737373"/>
    </linearGradient>
  </defs>
  <g id="Vector_Smart_Object" data-name="Vector Smart Object" transform="translate(-20.047 -14.97)">
    <g id="Сгруппировать_26" data-name="Сгруппировать 26">
      <path id="Контур_849" data-name="Контур 849" d="M245.577,145.97l-8.466-1.087a23.386,23.386,0,0,0-2.966-.184l-198.334.057a23.683,23.683,0,0,0-2.532.135l-9.964,1.08Z" opacity="0.52" fill="url(#linear-gradient)" style="mix-blend-mode: multiply;isolation: isolate"/>
      <path id="Контур_850" data-name="Контур 850" d="M225.693,140.747H43.285a1.742,1.742,0,0,1-1.745-1.739V19.61A4.648,4.648,0,0,1,46.2,14.97H222.831a4.648,4.648,0,0,1,4.655,4.64V138.96A1.791,1.791,0,0,1,225.693,140.747Z" fill="url(#linear-gradient-2)"/>
      <path id="Контур_851" data-name="Контур 851" d="M225.115,140.747H43.794a1.633,1.633,0,0,1-1.636-1.631V19.594a3.971,3.971,0,0,1,3.978-3.965h176.62a3.971,3.971,0,0,1,3.978,3.965v119.54A1.616,1.616,0,0,1,225.115,140.747Z"/>
      <g id="Сгруппировать_24" data-name="Сгруппировать 24">
        <rect id="Прямоугольник_3" data-name="Прямоугольник 3" width="179.881" height="112.77" transform="translate(44.505 20.2)" fill="#fff"/>
        <path id="Контур_852" data-name="Контур 852" d="M224.41,132.993H44.482V20.177H224.41Zm-179.881-.047H224.363V20.224H44.529Z"/>
      </g>
      <g id="Сгруппировать_25" data-name="Сгруппировать 25">
        <path id="Контур_853" data-name="Контур 853" d="M135.167,18.163a.569.569,0,1,1-.569-.567A.568.568,0,0,1,135.167,18.163Z" fill="#121316"/>
        <path id="Контур_854" data-name="Контур 854" d="M134.856,18.163a.258.258,0,1,1-.258-.257A.257.257,0,0,1,134.856,18.163Z" fill="#202125"/>
      </g>
      <path id="Контур_855" data-name="Контур 855" d="M225.147,140.747H43.745a1.584,1.584,0,0,1-1.587-1.582V135.4H226.733v3.767A1.584,1.584,0,0,1,225.147,140.747Z" fill="#1d1d1d"/>
      <path id="Контур_856" data-name="Контур 856" d="M20.047,141.75s7.161,3.511,23.3,3.125l190.408-.193s11.806-.887,15.29-2.932Z" fill="url(#linear-gradient-3)"/>
      <rect id="Прямоугольник_4" data-name="Прямоугольник 4" width="229" height="4.013" transform="translate(20.047 137.738)" fill="url(#linear-gradient-4)"/>
      <path id="Контур_857" data-name="Контур 857" d="M149.029,140.747H120a2.914,2.914,0,0,1-2.809-3.01h34.649A2.914,2.914,0,0,1,149.029,140.747Z" fill="url(#linear-gradient-5)"/>
    </g>
    <path id="Контур_858" data-name="Контур 858" d="M179.409,63.694,147.116,95.721l-29.8-28.042-60.29,65.29H68.8l48.946-53.006,29.529,27.784,38.246-37.932,8.219,8.235,8.35-30.76-30.9,8.168Z" fill="#f79420"/>
  </g>
</svg>
