<svg xmlns="http://www.w3.org/2000/svg" xmlns:xlink="http://www.w3.org/1999/xlink" width="438" height="408" viewBox="0 0 438 408">
  <defs>
    <clipPath id="clip-path">
      <rect id="Прямоугольник_60" data-name="Прямоугольник 60" width="438" height="408" transform="translate(977 980)" fill="none"/>
    </clipPath>
    <clipPath id="clip-path-2">
      <rect id="imageMask" width="1003" height="408" transform="translate(480 980)" fill="none"/>
    </clipPath>
    <clipPath id="clip-path-3">
      <path id="Контур_859" data-name="Контур 859" d="M479.7,25.991H200.572a62.05,62.05,0,0,0-61.938,62.023V462.967a62.051,62.051,0,0,0,61.938,62.024H479.7a62.051,62.051,0,0,0,61.938-62.024V88.014A62.05,62.05,0,0,0,479.7,25.991Zm1.5,431.939a5.255,5.255,0,0,1-5.252,5.259H204.322a5.255,5.255,0,0,1-5.252-5.259V93.051a5.256,5.256,0,0,1,5.252-5.259H475.948a5.256,5.256,0,0,1,5.252,5.259Z" fill="none"/>
    </clipPath>
    <linearGradient id="linear-gradient" y1="0.5" x2="1" y2="0.5" gradientUnits="objectBoundingBox">
      <stop offset="0" stop-color="#d6dad8"/>
      <stop offset="0.788" stop-color="#d6dad8"/>
      <stop offset="0.875" stop-color="#d0d4d2"/>
      <stop offset="0.989" stop-color="#c0c3c2"/>
      <stop offset="1" stop-color="#bfc2c1"/>
    </linearGradient>
    <linearGradient id="linear-gradient-2" x1="0.5" y1="3.798" x2="0.5" y2="-2.798" gradientUnits="objectBoundingBox">
      <stop offset="0" stop-color="#9d9e9f"/>
      <stop offset="0.198" stop-color="#c7c8c9"/>
      <stop offset="1" stop-color="#c7c8c9"/>
    </linearGradient>
    <linearGradient id="linear-gradient-4" x1="-0.058" y1="0.929" x2="1.058" y2="0.071" gradientUnits="objectBoundingBox">
      <stop offset="0" stop-color="#9d9e9f"/>
      <stop offset="0.198" stop-color="#c7c8c9"/>
      <stop offset="0.333" stop-color="#b3b4b5"/>
      <stop offset="0.487" stop-color="#a2a3a4"/>
      <stop offset="0.606" stop-color="#9d9e9f"/>
      <stop offset="0.722" stop-color="#a2a3a4"/>
      <stop offset="0.859" stop-color="#b0b1b2"/>
      <stop offset="1" stop-color="#c7c8c9"/>
    </linearGradient>
  </defs>
  <g id="Группа_масок_1" data-name="Группа масок 1" transform="translate(-977 -980)" clip-path="url(#clip-path)">
    <g id="Сгруппировать_32" data-name="Сгруппировать 32">
      <g id="Vector_Smart_Object" data-name="Vector Smart Object" clip-path="url(#clip-path-2)">
        <g id="Vector_Smart_Object-2" data-name="Vector Smart Object" transform="translate(825.365 972.009)">
          <g id="Layer_4" data-name="Layer 4">
            <g id="Сгруппировать_29" data-name="Сгруппировать 29">
              <g id="Сгруппировать_28" data-name="Сгруппировать 28" clip-path="url(#clip-path-3)">
                <g id="Сгруппировать_27" data-name="Сгруппировать 27" opacity="0.6">
                  <rect id="Прямоугольник_5" data-name="Прямоугольник 5" width="366.59" height="451.295" rx="60.217" transform="translate(169.345 62.366)" fill="#fff" opacity="0"/>
                  <rect id="Прямоугольник_6" data-name="Прямоугольник 6" width="364.812" height="449.514" rx="59.327" transform="translate(170.234 63.256)" fill="#fafafa" opacity="0.02"/>
                  <rect id="Прямоугольник_7" data-name="Прямоугольник 7" width="363.034" height="447.733" rx="58.437" transform="translate(171.123 64.146)" fill="#f5f5f5" opacity="0.039"/>
                  <path id="Прямоугольник_8" data-name="Прямоугольник 8" d="M57.548,0h246.16a57.548,57.548,0,0,1,57.548,57.548V388.4a57.548,57.548,0,0,1-57.548,57.548H57.547A57.547,57.547,0,0,1,0,388.4V57.548A57.548,57.548,0,0,1,57.548,0Z" transform="translate(172.012 65.037)" fill="#f0f0f0" opacity="0.059"/>
                  <path id="Прямоугольник_9" data-name="Прямоугольник 9" d="M56.658,0H302.819a56.658,56.658,0,0,1,56.658,56.658V387.513a56.659,56.659,0,0,1-56.659,56.659H56.658A56.658,56.658,0,0,1,0,387.514V56.658A56.658,56.658,0,0,1,56.658,0Z" transform="translate(172.901 65.927)" fill="#ebebeb" opacity="0.078"/>
                  <path id="Прямоугольник_10" data-name="Прямоугольник 10" d="M55.769,0H301.931A55.769,55.769,0,0,1,357.7,55.769V386.622a55.769,55.769,0,0,1-55.769,55.769H55.768A55.768,55.768,0,0,1,0,386.623V55.769A55.769,55.769,0,0,1,55.769,0Z" transform="translate(173.79 66.817)" fill="#e6e6e6" opacity="0.098"/>
                  <path id="Прямоугольник_11" data-name="Прямоугольник 11" d="M54.878,0H301.043a54.878,54.878,0,0,1,54.878,54.878V385.732a54.878,54.878,0,0,1-54.878,54.878H54.879A54.879,54.879,0,0,1,0,385.731V54.878A54.878,54.878,0,0,1,54.878,0Z" transform="translate(174.679 67.708)" fill="#e1e1e1" opacity="0.118"/>
                  <rect id="Прямоугольник_12" data-name="Прямоугольник 12" width="354.143" height="438.83" rx="53.989" transform="translate(175.568 68.598)" fill="#dcdcdc" opacity="0.137"/>
                  <rect id="Прямоугольник_13" data-name="Прямоугольник 13" width="352.365" height="437.049" rx="53.099" transform="translate(176.458 69.488)" fill="#d7d7d7" opacity="0.157"/>
                  <path id="Прямоугольник_14" data-name="Прямоугольник 14" d="M52.209,0H298.377a52.209,52.209,0,0,1,52.209,52.209V383.058a52.21,52.21,0,0,1-52.21,52.21H52.209A52.209,52.209,0,0,1,0,383.059V52.209A52.209,52.209,0,0,1,52.209,0Z" transform="translate(177.347 70.379)" fill="#d2d2d2" opacity="0.176"/>
                  <path id="Прямоугольник_15" data-name="Прямоугольник 15" d="M51.32,0H297.488a51.32,51.32,0,0,1,51.32,51.32V382.168a51.32,51.32,0,0,1-51.32,51.32H51.319A51.319,51.319,0,0,1,0,382.168V51.32A51.32,51.32,0,0,1,51.32,0Z" transform="translate(178.236 71.269)" fill="#cdcdcd" opacity="0.196"/>
                  <rect id="Прямоугольник_16" data-name="Прямоугольник 16" width="347.03" height="431.707" rx="50.43" transform="translate(179.125 72.159)" fill="#c8c8c8" opacity="0.216"/>
                  <rect id="Прямоугольник_17" data-name="Прямоугольник 17" width="345.252" height="429.926" rx="49.54" transform="translate(180.014 73.05)" fill="#c3c3c3" opacity="0.235"/>
                  <path id="Прямоугольник_18" data-name="Прямоугольник 18" d="M48.651,0H294.823a48.65,48.65,0,0,1,48.65,48.65V379.495a48.651,48.651,0,0,1-48.651,48.651H48.65A48.65,48.65,0,0,1,0,379.5V48.651A48.651,48.651,0,0,1,48.651,0Z" transform="translate(180.903 73.94)" fill="#bebebe" opacity="0.255"/>
                  <path id="Прямоугольник_19" data-name="Прямоугольник 19" d="M47.761,0H293.935A47.762,47.762,0,0,1,341.7,47.765V378.6a47.761,47.761,0,0,1-47.761,47.761H47.76A47.76,47.76,0,0,1,0,378.6V47.761A47.761,47.761,0,0,1,47.761,0Z" transform="translate(181.792 74.831)" fill="#b9b9b9" opacity="0.275"/>
                  <rect id="Прямоугольник_20" data-name="Прямоугольник 20" width="339.917" height="424.584" rx="46.871" transform="translate(182.681 75.721)" fill="#b4b4b4" opacity="0.294"/>
                  <path id="Прямоугольник_21" data-name="Прямоугольник 21" d="M45.981,0H292.157a45.981,45.981,0,0,1,45.981,45.981v330.84A45.981,45.981,0,0,1,292.16,422.8H45.981A45.981,45.981,0,0,1,0,376.823V45.981A45.981,45.981,0,0,1,45.981,0Z" transform="translate(183.571 76.611)" fill="#afafaf" opacity="0.314"/>
                  <rect id="Прямоугольник_22" data-name="Прямоугольник 22" width="336.36" height="421.023" rx="45.091" transform="translate(184.46 77.502)" fill="#aaa" opacity="0.333"/>
                  <rect id="Прямоугольник_23" data-name="Прямоугольник 23" width="334.582" height="419.242" rx="44.202" transform="translate(185.349 78.392)" fill="#a5a5a5" opacity="0.353"/>
                  <rect id="Прямоугольник_24" data-name="Прямоугольник 24" width="332.804" height="417.461" rx="43.312" transform="translate(186.238 79.282)" fill="#a0a0a0" opacity="0.373"/>
                  <path id="Прямоугольник_25" data-name="Прямоугольник 25" d="M42.423,0H288.6a42.423,42.423,0,0,1,42.423,42.423V373.259A42.422,42.422,0,0,1,288.6,415.681H42.422A42.422,42.422,0,0,1,0,373.259V42.423A42.423,42.423,0,0,1,42.423,0Z" transform="translate(187.127 80.173)" fill="#9b9b9b" opacity="0.392"/>
                  <path id="Прямоугольник_26" data-name="Прямоугольник 26" d="M41.533,0H287.715a41.532,41.532,0,0,1,41.532,41.532V372.367A41.533,41.533,0,0,1,287.715,413.9H41.532A41.532,41.532,0,0,1,0,372.368V41.533A41.533,41.533,0,0,1,41.533,0Z" transform="translate(188.016 81.063)" fill="#969696" opacity="0.412"/>
                  <rect id="Прямоугольник_27" data-name="Прямоугольник 27" width="327.469" height="412.119" rx="40.643" transform="translate(188.905 81.953)" fill="#919191" opacity="0.431"/>
                  <rect id="Прямоугольник_28" data-name="Прямоугольник 28" width="325.691" height="410.339" rx="39.753" transform="translate(189.794 82.844)" fill="#8c8c8c" opacity="0.451"/>
                  <path id="Прямоугольник_29" data-name="Прямоугольник 29" d="M38.864,0H285.05a38.863,38.863,0,0,1,38.863,38.863V369.694a38.864,38.864,0,0,1-38.864,38.864H38.863A38.863,38.863,0,0,1,0,369.7V38.864A38.864,38.864,0,0,1,38.864,0Z" transform="translate(190.683 83.734)" fill="#878787" opacity="0.471"/>
                  <path id="Прямоугольник_30" data-name="Прямоугольник 30" d="M37.974,0H284.161a37.974,37.974,0,0,1,37.974,37.974V368.8a37.974,37.974,0,0,1-37.974,37.974H37.973A37.973,37.973,0,0,1,0,368.8V37.974A37.974,37.974,0,0,1,37.974,0Z" transform="translate(191.573 84.624)" fill="#828282" opacity="0.49"/>
                  <rect id="Прямоугольник_31" data-name="Прямоугольник 31" width="320.356" height="404.997" rx="37.084" transform="translate(192.462 85.515)" fill="#7d7d7d" opacity="0.51"/>
                  <rect id="Прямоугольник_32" data-name="Прямоугольник 32" width="318.578" height="403.216" rx="36.194" transform="translate(193.351 86.405)" fill="#787878" opacity="0.529"/>
                  <path id="Прямоугольник_33" data-name="Прямоугольник 33" d="M35.3,0H281.5a35.3,35.3,0,0,1,35.3,35.3V366.131a35.3,35.3,0,0,1-35.3,35.3H35.3A35.3,35.3,0,0,1,0,366.131V35.3A35.3,35.3,0,0,1,35.3,0Z" transform="translate(194.24 87.295)" fill="#737373" opacity="0.549"/>
                  <path id="Прямоугольник_34" data-name="Прямоугольник 34" d="M34.414,0H280.607a34.415,34.415,0,0,1,34.415,34.415V365.24a34.415,34.415,0,0,1-34.415,34.415H34.414A34.414,34.414,0,0,1,0,365.24V34.414A34.414,34.414,0,0,1,34.414,0Z" transform="translate(195.129 88.186)" fill="#6e6e6e" opacity="0.569"/>
                  <rect id="Прямоугольник_35" data-name="Прямоугольник 35" width="313.243" height="397.874" rx="33.525" transform="translate(196.018 89.076)" fill="#696969" opacity="0.588"/>
                  <rect id="Прямоугольник_36" data-name="Прямоугольник 36" width="311.465" height="396.093" rx="32.635" transform="translate(196.907 89.966)" fill="#646464" opacity="0.608"/>
                  <path id="Прямоугольник_37" data-name="Прямоугольник 37" d="M31.746,0h246.2a31.746,31.746,0,0,1,31.746,31.746V362.567a31.746,31.746,0,0,1-31.746,31.746H31.745A31.745,31.745,0,0,1,0,362.567V31.746A31.746,31.746,0,0,1,31.746,0Z" transform="translate(197.796 90.857)" fill="#5f5f5f" opacity="0.627"/>
                  <rect id="Прямоугольник_38" data-name="Прямоугольник 38" width="307.909" height="392.532" rx="30.856" transform="translate(198.685 91.747)" fill="#5a5a5a" opacity="0.647"/>
                  <rect id="Прямоугольник_39" data-name="Прямоугольник 39" width="306.13" height="390.751" rx="29.966" transform="translate(199.575 92.637)" fill="#555" opacity="0.667"/>
                  <rect id="Прямоугольник_40" data-name="Прямоугольник 40" width="304.352" height="388.97" rx="29.076" transform="translate(200.464 93.528)" fill="#505050" opacity="0.686"/>
                  <path id="Прямоугольник_41" data-name="Прямоугольник 41" d="M28.187,0h246.2a28.187,28.187,0,0,1,28.187,28.187V359a28.187,28.187,0,0,1-28.187,28.187H28.186A28.186,28.186,0,0,1,0,359V28.187A28.187,28.187,0,0,1,28.187,0Z" transform="translate(201.353 94.418)" fill="#4b4b4b" opacity="0.706"/>
                  <rect id="Прямоугольник_42" data-name="Прямоугольник 42" width="300.796" height="385.409" rx="27.297" transform="translate(202.242 95.308)" fill="#464646" opacity="0.725"/>
                  <rect id="Прямоугольник_43" data-name="Прямоугольник 43" width="299.017" height="383.628" rx="26.407" transform="translate(203.131 96.199)" fill="#414141" opacity="0.745"/>
                  <path id="Прямоугольник_44" data-name="Прямоугольник 44" d="M25.518,0h246.2a25.517,25.517,0,0,1,25.517,25.517V356.33a25.517,25.517,0,0,1-25.517,25.517H25.517A25.517,25.517,0,0,1,0,356.33V25.518A25.518,25.518,0,0,1,25.518,0Z" transform="translate(204.02 97.089)" fill="#3c3c3c" opacity="0.765"/>
                  <rect id="Прямоугольник_45" data-name="Прямоугольник 45" width="295.461" height="380.067" rx="24.628" transform="translate(204.909 97.979)" fill="#373737" opacity="0.784"/>
                  <rect id="Прямоугольник_46" data-name="Прямоугольник 46" width="293.683" height="378.286" rx="23.738" transform="translate(205.798 98.87)" fill="#323232" opacity="0.804"/>
                  <rect id="Прямоугольник_47" data-name="Прямоугольник 47" width="291.904" height="376.506" rx="22.848" transform="translate(206.687 99.76)" fill="#2d2d2d" opacity="0.824"/>
                  <path id="Прямоугольник_48" data-name="Прямоугольник 48" d="M21.959,0H268.168a21.959,21.959,0,0,1,21.959,21.959V352.766a21.958,21.958,0,0,1-21.958,21.958H21.958A21.958,21.958,0,0,1,0,352.767V21.959A21.959,21.959,0,0,1,21.959,0Z" transform="translate(207.577 100.651)" fill="#282828" opacity="0.843"/>
                  <rect id="Прямоугольник_49" data-name="Прямоугольник 49" width="288.348" height="372.944" rx="21.069" transform="translate(208.466 101.541)" fill="#232323" opacity="0.863"/>
                  <rect id="Прямоугольник_50" data-name="Прямоугольник 50" width="286.57" height="371.164" rx="20.179" transform="translate(209.355 102.431)" fill="#1e1e1e" opacity="0.882"/>
                  <rect id="Прямоугольник_51" data-name="Прямоугольник 51" width="284.791" height="369.383" rx="19.289" transform="translate(210.244 103.322)" fill="#191919" opacity="0.902"/>
                  <path id="Прямоугольник_52" data-name="Прямоугольник 52" d="M18.4,0H264.614a18.4,18.4,0,0,1,18.4,18.4V349.2a18.4,18.4,0,0,1-18.4,18.4H18.4A18.4,18.4,0,0,1,0,349.2V18.4A18.4,18.4,0,0,1,18.4,0Z" transform="translate(211.133 104.212)" fill="#141414" opacity="0.922"/>
                  <rect id="Прямоугольник_53" data-name="Прямоугольник 53" width="281.235" height="365.821" rx="17.51" transform="translate(212.022 105.102)" fill="#0f0f0f" opacity="0.941"/>
                  <rect id="Прямоугольник_54" data-name="Прямоугольник 54" width="279.457" height="364.041" rx="16.62" transform="translate(212.911 105.993)" fill="#0a0a0a" opacity="0.961"/>
                  <rect id="Прямоугольник_55" data-name="Прямоугольник 55" width="277.679" height="362.26" rx="15.73" transform="translate(213.8 106.883)" fill="#050505" opacity="0.98"/>
                  <path id="Прямоугольник_56" data-name="Прямоугольник 56" d="M14.84,0H261.06A14.84,14.84,0,0,1,275.9,14.84v330.8a14.841,14.841,0,0,1-14.841,14.841H14.841A14.841,14.841,0,0,1,0,345.639V14.84A14.84,14.84,0,0,1,14.84,0Z" transform="translate(214.69 107.773)"/>
                </g>
              </g>
            </g>
            <rect id="Прямоугольник_60-2" data-name="Прямоугольник 60" width="289" height="383" transform="translate(196.635 84.991)" fill="#fff"/>
          </g>
          <g id="Layer_3" data-name="Layer 3">
            <rect id="Прямоугольник_57" data-name="Прямоугольник 57" width="17.217" height="3.337" rx="0.634" transform="translate(457.319 73.944)" fill="url(#linear-gradient)"/>
            <rect id="Прямоугольник_58" data-name="Прямоугольник 58" width="12.838" height="1.944" rx="0.37" transform="translate(494.673 104.198) rotate(90)" fill="url(#linear-gradient-2)"/>
            <rect id="Прямоугольник_59" data-name="Прямоугольник 59" width="12.838" height="1.944" rx="0.37" transform="translate(494.673 120.326) rotate(90)" fill="url(#linear-gradient-2)"/>
            <path id="Контур_860" data-name="Контур 860" d="M475.948,75.056H204.322a18,18,0,0,0-17.97,18V457.93a18,18,0,0,0,17.97,18H475.948a18,18,0,0,0,17.971-18V93.051a18,18,0,0,0-17.971-18ZM481.2,457.93a5.255,5.255,0,0,1-5.252,5.259H204.322a5.255,5.255,0,0,1-5.252-5.259V93.051a5.256,5.256,0,0,1,5.252-5.259H475.948a5.256,5.256,0,0,1,5.252,5.259Z" fill="url(#linear-gradient-4)"/>
            <path id="Контур_861" data-name="Контур 861" d="M475.948,76.669H204.322a16.389,16.389,0,0,0-16.359,16.382V457.93a16.389,16.389,0,0,0,16.359,16.382H475.948a16.389,16.389,0,0,0,16.359-16.382V93.051A16.389,16.389,0,0,0,475.948,76.669ZM481.2,457.93a5.255,5.255,0,0,1-5.252,5.259H204.322a5.255,5.255,0,0,1-5.252-5.259V93.051a5.256,5.256,0,0,1,5.252-5.259H475.948a5.256,5.256,0,0,1,5.252,5.259Z"/>
          </g>
        </g>
      </g>
      <g id="Vector_Smart_Object-3" data-name="Vector Smart Object" clip-path="url(#clip-path-2)">
        <g id="Vector_Smart_Object-4" data-name="Vector Smart Object">
          <g id="Vector_Smart_Object-5" data-name="Vector Smart Object" transform="translate(878.098 883.056)">
            <g id="Сгруппировать_30" data-name="Сгруппировать 30">
              <path id="Контур_862" data-name="Контур 862" d="M413.667,206.8V312.74c-21.708,30.772-45.657,55.878-70.172,78.173V206.8Z" fill="#3d3d3d"/>
              <path id="Контур_863" data-name="Контур 863" d="M326.518,285V402.281c-23.768,22.136-47.592,35.93-70.172,49.191V285Z" fill="#3d3d3d"/>
              <path id="Контур_864" data-name="Контур 864" d="M239.369,349.611V457.627Q227.91,463.833,217.141,469c-16.773,8.093-32.924,13.726-47.943,19.348V349.611Z" fill="#3d3d3d"/>
              <path id="Контур_865" data-name="Контур 865" d="M140.9,504.944s226.618-28.91,333.431-239.952l-22.622-8.674L535.9,199.944,533.015,301.6,513.3,286.674S406.492,491.935,140.9,504.944Z" fill="#3d3d3d"/>
            </g>
          </g>
          <path id="Color_Overlay" data-name="Color Overlay" d="M1352.431,1148.048l-22.622-8.674L1414,1083l-2.887,101.659-19.71-14.928S1284.59,1374.991,1019,1388C1019,1388,1245.617,1359.09,1352.431,1148.048ZM1047.3,1232.666h70.172v108.016q-11.46,6.206-22.229,11.369c-16.773,8.093-32.924,13.726-47.943,19.347Zm87.149-64.606h70.172v117.276c-23.768,22.136-47.592,35.93-70.172,49.191Zm87.149-78.206h70.172V1195.8c-21.708,30.773-45.657,55.878-70.172,78.173Z" fill="#ff9502"/>
        </g>
      </g>
    </g>
  </g>
</svg>
